<svg xmlns="http://www.w3.org/2000/svg" viewBox="0 0 163.39875 163.0659"><defs><style>.cls-1,.cls-2,.cls-6{fill:none;stroke-miterlimit:10;}.cls-1,.cls-2{stroke:#999;}.cls-2{stroke-width:0.75px;}.cls-3{fill:#c6c6c6;}.cls-4{opacity:0.54;}.cls-5{fill:#fff;}.cls-6{stroke:#b2b2b2;stroke-width:0.5px;}</style></defs><g id="Слой_2" data-name="Слой 2"><g id="Слой_2-2" data-name="Слой 2"><line class="cls-1" x1="81.69955" y1="154.36518" x2="81.69955" y2="146.12004"/><line class="cls-1" x1="45.28356" y1="144.6077" x2="49.40613" y2="137.4672"/><line class="cls-1" x1="18.62502" y1="117.94967" x2="25.76552" y2="113.8271"/><line class="cls-1" x1="8.86745" y1="81.53253" x2="17.11259" y2="81.53253"/><line class="cls-1" x1="18.62499" y1="45.11655" x2="25.76548" y2="49.23912"/><line class="cls-1" x1="45.28346" y1="18.45823" x2="49.40603" y2="25.59873"/><line class="cls-1" x1="81.69948" y1="8.70072" x2="81.69948" y2="16.94586"/><line class="cls-1" x1="118.11546" y1="18.4582" x2="113.9929" y2="25.59869"/><line class="cls-1" x1="144.77423" y1="45.11667" x2="137.63374" y2="49.23924"/><line class="cls-1" x1="154.53129" y1="81.53275" x2="146.28616" y2="81.53275"/><line class="cls-1" x1="144.77382" y1="117.94845" x2="137.63332" y2="113.82588"/><line class="cls-1" x1="118.11579" y1="144.60722" x2="113.99322" y2="137.46672"/><line class="cls-2" x1="72.18557" y1="153.79733" x2="72.79155" y2="149.19448"/><line class="cls-2" x1="62.83471" y1="151.93704" x2="64.03629" y2="147.45267"/><line class="cls-2" x1="53.80662" y1="148.87333" x2="55.58325" y2="144.58416"/><line class="cls-2" x1="37.32791" y1="139.35904" x2="40.15412" y2="135.67585"/><line class="cls-2" x1="30.15966" y1="133.07312" x2="33.44245" y2="129.79033"/><line class="cls-2" x1="23.87327" y1="125.90488" x2="27.55646" y2="123.07866"/><line class="cls-2" x1="14.35947" y1="109.42641" x2="18.64863" y2="107.64978"/><line class="cls-2" x1="11.29477" y1="100.39855" x2="15.77914" y2="99.19696"/><line class="cls-2" x1="9.43508" y1="91.04597" x2="14.03793" y2="90.43999"/><line class="cls-2" x1="9.43502" y1="72.01856" x2="14.03787" y2="72.62453"/><line class="cls-2" x1="11.29475" y1="62.66769" x2="15.77912" y2="63.86927"/><line class="cls-2" x1="14.35936" y1="53.6396" x2="18.64853" y2="55.41624"/><line class="cls-2" x1="23.8732" y1="37.1618" x2="27.55639" y2="39.98801"/><line class="cls-2" x1="30.15957" y1="29.9931" x2="33.44236" y2="33.27589"/><line class="cls-2" x1="37.32781" y1="23.70671" x2="40.15403" y2="27.3899"/><line class="cls-2" x1="53.80605" y1="14.19267" x2="55.58269" y2="18.48184"/><line class="cls-2" x1="62.83448" y1="11.12798" x2="64.03607" y2="15.61235"/><line class="cls-2" x1="72.18581" y1="9.26837" x2="72.79179" y2="13.87121"/><line class="cls-2" x1="91.21357" y1="9.26829" x2="90.60759" y2="13.87113"/><line class="cls-2" x1="100.56432" y1="11.12807" x2="99.36274" y2="15.61244"/><line class="cls-2" x1="109.59241" y1="14.19257" x2="107.81578" y2="18.48174"/><line class="cls-2" x1="126.07067" y1="23.7064" x2="123.24446" y2="27.3896"/><line class="cls-2" x1="133.23936" y1="29.99278" x2="129.95658" y2="33.27557"/><line class="cls-2" x1="139.52621" y1="37.16102" x2="135.84302" y2="39.98723"/><line class="cls-2" x1="149.03934" y1="53.63938" x2="144.75017" y2="55.41601"/><line class="cls-2" x1="152.10449" y1="62.66781" x2="147.62012" y2="63.86939"/><line class="cls-2" x1="153.9641" y1="72.01905" x2="149.36125" y2="72.62503"/><line class="cls-2" x1="153.96344" y1="91.04689" x2="149.36059" y2="90.44091"/><line class="cls-2" x1="152.10496" y1="100.39753" x2="147.62059" y2="99.19595"/><line class="cls-2" x1="149.03944" y1="109.42584" x2="144.75027" y2="107.64921"/><line class="cls-2" x1="139.52515" y1="125.9041" x2="135.84196" y2="123.07789"/><line class="cls-2" x1="133.23923" y1="133.07235" x2="129.95644" y2="129.78956"/><line class="cls-2" x1="126.07099" y1="139.35919" x2="123.24478" y2="135.676"/><line class="cls-2" x1="109.59252" y1="148.87322" x2="107.81589" y2="144.58406"/><line class="cls-2" x1="100.56466" y1="151.93747" x2="99.36307" y2="147.4531"/><line class="cls-2" x1="91.21299" y1="153.79708" x2="90.60701" y2="149.19424"/><path class="cls-3" d="M83.96336,2.99c-.00476,2.00535-.75174,3.10861-2.05829,3.10544C80.7531,6.0923,79.976,5.01127,79.96324,3.061c.00582-1.97782.86133-3.06308,2.05883-3.061C83.26456.00318,83.96866,1.11174,83.96336,2.99Zm-3.20179.08258c-.0037,1.53208.46534,2.40452,1.19061,2.40664.81686.00212,1.20915-.94974,1.21338-2.45428C83.16927,1.57231,82.79975.6194,81.975.61728,81.27667.61516,80.76581,1.46537,80.76157,3.07262Z"/><path class="cls-3" d="M116.66639,13.38642a2.66556,2.66556,0,0,0,.9545.9635A1.15268,1.15268,0,0,0,119.342,14.009c.39652-.72421-.07729-1.39549-.74857-1.77348l-.387-.21811.29329-.52093.387.21706c.505.28481,1.29172.3854,1.63371-.22447a.88723.88723,0,0,0-.46428-1.28008,2.17034,2.17034,0,0,0-1.21708-.23823l.10217-.60774a2.81291,2.81291,0,0,1,1.56437.361,1.42818,1.42818,0,0,1-.84756,2.7264l-.009.01588a1.53315,1.53315,0,0,1,.40234,1.963,1.87241,1.87241,0,0,1-2.73857.486,2.99731,2.99731,0,0,1-1.13873-1.099Z"/><path class="cls-3" d="M124.926,15.94129c-1.08632,1.68242-2.31134,2.20758-3.40719,1.50031-.96668-.62469-1.03656-1.95347.00582-3.5999,1.072-1.65913,2.37752-2.11123,3.38285-1.46219C125.95042,13.0529,125.94406,14.36686,124.926,15.94129Zm-2.73645-1.66019c-.83115,1.28643-.90791,2.27429-.29858,2.6671.685.44364,1.5289-.14505,2.34523-1.40925.78721-1.21762.99156-2.21923.298-2.666C123.94877,12.49492,123.05938,12.93432,122.18958,14.2811Z"/><path class="cls-3" d="M151.47568,39.957a2.91606,2.91606,0,0,0-.351-.48811,2.39541,2.39541,0,0,0-2.86615-.61092l.01429.02329a1.79625,1.79625,0,0,1,.676,3.35956,1.97012,1.97012,0,0,1-2.8021-.54528c-.67392-1.06515-.28746-2.287,1.008-3.1065a3.70436,3.70436,0,0,1,2.77934-.577,3.20841,3.20841,0,0,1,1.74489,1.12868,3.85843,3.85843,0,0,1,.34887.46693Zm-2.99586,1.62525a1.19661,1.19661,0,0,0,.49181-1.74913,1.311,1.311,0,0,0-1.224-.5781.66648.66648,0,0,0-.34729.11223c-.811.53469-1.17843,1.29385-.73268,2.00006A1.23549,1.23549,0,0,0,148.47982,41.58226Z"/><path class="cls-3" d="M152.12154,45.81214c-1.75653.96773-3.08479.85021-3.71477-.29329-.5564-1.01009.01323-2.21394,1.71207-3.17109,1.73271-.955,3.0975-.73268,3.67507.31658C154.39318,43.75172,153.76532,44.90687,152.12154,45.81214Zm-1.62524-2.76028c-1.34255.739-1.87777,1.57231-1.52784,2.20864.39387.71469,1.41666.59716,2.73539-.12917,1.27161-.70092,1.92594-1.48654,1.52784-2.2097C152.895,42.30965,151.90237,42.27682,150.4963,43.05186Z"/><path class="cls-3" d="M157.897,77.68791a3.30447,3.30447,0,0,0,.05718.64163,2.21854,2.21854,0,0,0,.62839,1.20491,2.56789,2.56789,0,0,0,1.60249.70515l-.00106-.02541a1.73475,1.73475,0,0,1-.69828-1.35631,1.70675,1.70675,0,0,1,1.72107-1.82324,2.01991,2.01991,0,0,1,2.18641,1.91218c.05612,1.2049-.8878,1.99265-2.39076,2.06253a3.72111,3.72111,0,0,1-2.81056-.88515,2.945,2.945,0,0,1-.86715-1.675,3.73507,3.73507,0,0,1-.07941-.73162Zm3.40085.13235a1.13312,1.13312,0,0,0-1.1975,1.189,1.32161,1.32161,0,0,0,.67075,1.13185.52744.52744,0,0,0,.29328.05823c1.00533-.04659,1.7576-.45422,1.71843-1.28749C162.75157,78.23213,162.13165,77.78109,161.29785,77.82026Z"/><path class="cls-3" d="M160.36134,85.83427c-2.0027-.05823-3.08691-.83115-3.04985-2.13559.03282-1.15091,1.13291-1.89947,3.08162-1.86347,1.97518.05611,3.03874.93915,3.00485,2.13558C163.363,85.2117,162.23753,85.88615,160.36134,85.83427Zm0-3.20179c-1.531-.04341-2.41457.4034-2.43522,1.12867-.02329.81527.91744,1.23138,2.422,1.27373,1.44949.04129,2.4114-.30281,2.43522-1.12762C162.80292,83.20952,161.96542,82.677,160.36134,82.63248Z"/><path class="cls-3" d="M154.55238,116.9237l.00741-.01589-.06353-1.16043.61463.11858.07465,1.4569-.28958.6141-5.3252-2.50616.32822-.69669Z"/><path class="cls-3" d="M148.66866,117.29l.42882.23505.2324.83856c.53363,2.00642.87509,2.96674,1.64907,3.39979a1.05049,1.05049,0,0,0,1.56913-.47222,2.0073,2.0073,0,0,0,.16306-1.3362l.6141.04765a2.57963,2.57963,0,0,1-.27529,1.74806,1.65561,1.65561,0,0,1-2.36587.75916c-.95292-.52093-1.34573-1.63266-1.79836-3.296l-.15565-.62046-.01535-.00847-1.26949,2.31876-.58022-.31764Z"/><path class="cls-3" d="M146.93065,126.1892c-1.69565-1.06409-2.23723-2.27959-1.54372-3.386.612-.97515,1.93918-1.062,3.5999-.0413,1.67237,1.04927,2.14141,2.34947,1.50508,3.36273C149.83228,127.176,148.52043,127.18764,146.93065,126.1892Zm1.62419-2.7571c-1.297-.81315-2.28487-.87668-2.67027-.26258-.43305.69033.1657,1.52678,1.43943,2.32617,1.2282.76974,2.23193.96138,2.67027.26364C150.36485,125.16746,149.91328,124.28549,148.55484,123.4321Z"/><path class="cls-3" d="M126.88783,148.59948l.01483-.01165.52145-1.03974.47487.4087-.65857,1.30337-.5564.3907-3.3839-4.82492.631-.44364Z"/><path class="cls-3" d="M121.35034,152.27667l1.9143-1.1795-.60086-1.40714a3.13836,3.13836,0,0,1-.39017.2827,2.487,2.487,0,0,1-1.24673.39387,1.67637,1.67637,0,0,1-1.5109-.847,2.042,2.042,0,0,1,.81263-2.86192,2.89307,2.89307,0,0,1,1.44049-.46269l.14876.62363a2.63372,2.63372,0,0,0-1.24356.38116,1.30086,1.30086,0,0,0-.51934,1.82113c.40711.64374,1.12391.84068,2.12765.22234a6.25927,6.25927,0,0,0,.66175-.48175l1.15779,2.60887-2.40029,1.476Z"/><path class="cls-3" d="M115.6948,152.85371c-.946-1.76819-.81263-3.0938.33934-3.71,1.01591-.54422,2.21235.03917,3.14832,1.75018.93333,1.74384.69457,3.1065-.36105,3.67084C117.72609,155.15023,116.58,154.50966,115.6948,152.85371Zm2.78039-1.59137c-.72369-1.35-1.55007-1.8963-2.19012-1.55431-.71945.3854-.6141,1.40926.09583,2.737.685,1.28009,1.46219,1.944,2.19011,1.55431C119.1867,153.67,119.23223,152.678,118.47519,151.26234Z"/><path class="cls-3" d="M87.40148,162.03669l.018-.00212.98732-.61727.19323.5961-1.2409.77186-.67922.04341-.38117-5.88372.76922-.04976Z"/><path class="cls-3" d="M84.3188,158.55538a1.68373,1.68373,0,0,1-1.15938,1.585l.009.02753a1.45913,1.45913,0,0,1,.94286,1.3182,1.65043,1.65043,0,0,1-1.81266,1.57972,1.522,1.522,0,0,1-1.72318-1.4389,1.49833,1.49833,0,0,1,.96138-1.386v-.02647a1.63431,1.63431,0,0,1-1.198-1.51619,1.81523,1.81523,0,0,1,1.9937-1.72584C83.56547,156.96507,84.31351,157.69352,84.3188,158.55538Zm-3.1732.05611c.00476.71681.50557,1.05668,1.305,1.279a1.27973,1.27973,0,0,0,1.053-1.22079,1.08908,1.08908,0,0,0-1.18585-1.117A1.06565,1.06565,0,0,0,81.1456,158.61149Zm2.21288,2.93286c-.00318-.58869-.44946-.90421-1.13133-1.08a1.16075,1.16075,0,0,0-.89044,1.07574.91615.91615,0,0,0,1.00374.954A.93671.93671,0,0,0,83.35848,161.54435Z"/><path class="cls-3" d="M75.6044,159.85875c.10853-2.00112.9095-3.0652,2.21341-2.99426,1.14932.06141,1.8693,1.18055,1.78248,3.12767-.10588,1.97465-1.01591,3.01333-2.21076,2.94874C76.14968,162.8742,75.50329,161.73176,75.6044,159.85875Zm3.19968.08153c.08258-1.53-.34094-2.42464-1.06515-2.46381-.81421-.04341-1.25467.88515-1.3362,2.38864-.07835,1.44843.24194,2.41828,1.06568,2.46275C78.16509,162.366,78.71778,161.54223,78.80408,159.94028Z"/><path class="cls-3" d="M49.78149,149.94633l-.21917.43834-.83063.26258c-1.98629.60669-2.935.9815-3.34049,1.77136a1.05036,1.05036,0,0,0,.52887,1.55219,2.01045,2.01045,0,0,0,1.34149.11541l-.02488.61516a2.57514,2.57514,0,0,1-1.75813-.21176,1.65754,1.65754,0,0,1-.84492-2.33887c.48705-.972,1.58608-1.405,3.23091-1.91748l.61622-.17788.00794-.01694-2.36481-1.18373.29646-.59186Z"/><path class="cls-3" d="M41.63566,151.4604l.01588.00953,1.16256.03494-.17153.60246-1.45848-.04977-.58711-.342,2.95563-5.09068.666.3854Z"/><path class="cls-3" d="M36.86262,145.91656c1.10909-1.6676,2.34046-2.17688,3.42784-1.45372.95874.63633,1.01062,1.96724-.05347,3.5999-1.09426,1.64536-2.4061,2.08052-3.403,1.41666C35.80012,148.79224,35.82341,147.47934,36.86262,145.91656Zm2.71475,1.69725c.84862-1.27691.93809-2.26264.33352-2.66393-.67922-.451-1.531.126-2.36429,1.37855-.80256,1.20808-1.02068,2.20653-.33352,2.66393C37.79436,149.37776,38.689,148.95,39.57737,147.61381Z"/><path class="cls-3" d="M19.83479,124.69393l-.41028.26682-.85022-.1927c-2.02123-.47858-3.03026-.63316-3.77989-.15565a1.05115,1.05115,0,0,0-.32611,1.60831,1.99316,1.99316,0,0,0,1.10009.775l-.33246.51986a2.58853,2.58853,0,0,1-1.4119-1.07149,1.6582,1.6582,0,0,1,.4521-2.44688c.91162-.59292,2.07841-.41187,3.75872-.02435l.622.15776.01535-.00953L17.228,121.90189l.55428-.361Z"/><path class="cls-3" d="M16.16077,118.73928l-1.3939.792,1.351,2.37911-.45687.25941-4.566-.42776-.42458-.74856,3.18168-1.80736-.40764-.71681.54422-.30916.40658.7168,1.3939-.792Zm-1.93706,1.10114-1.70942.97091c-.26787.15141-.53946.29541-.81686.432l.01324.02435c.38857-.0127.68133-.0127.99791-.00529l2.45216.26364.01589-.00847Z"/><path class="cls-3" d="M10.708,114.6968c1.79889-.88091,3.11867-.70092,3.69254.47222.50663,1.03339-.11911,2.20759-1.86136,3.08109-1.77348.86927-3.12556.58234-3.65178-.49234C8.34211,116.64287,9.02345,115.52054,10.708,114.6968Zm1.48866,2.83333c1.37537-.67445,1.94977-1.48019,1.63054-2.13135-.3584-.73162-1.3849-.66386-2.73592-.00211-1.30231.63739-1.99318,1.39019-1.63,2.13135C9.76778,118.15376,10.75616,118.23423,12.19665,117.53013Z"/><path class="cls-3" d="M6.07407,88.09533l-.4881.02223-.63634-.5961c-1.5019-1.43784-2.29387-2.08159-3.18167-2.04771A1.04988,1.04988,0,0,0,.67211,86.69454,2.01,2.01,0,0,0,1.228,87.92168l-.54951.27953a2.58952,2.58952,0,0,1-.67551-1.639,1.65748,1.65748,0,0,1,1.62842-1.88147c1.08633-.05082,2.00218.69562,3.25526,1.88147l.45687.45h.018l-.12282-2.64487.66069-.03176Z"/><path class="cls-3" d="M.05112,79.63133l.52569.00847,5.32627,2.63534-.01112.8248L.71922,80.47413l-.018.00106-.0397,2.87886L.0003,83.34558Z"/><path class="cls-3" d="M3.24815,74.86994c1.99847.145,3.04774.96668,2.9535,2.26687-.08364,1.14985-1.21549,1.84972-3.16,1.7269C1.07021,78.72077.04742,77.79221.13371,76.599.22371,75.36016,1.37726,74.73441,3.24815,74.86994Zm-.14029,3.19755c1.52784.11118,2.4294-.29646,2.48181-1.01961.05929-.81316-.86186-1.27056-2.36217-1.37961-1.44684-.10482-2.423.198-2.48287,1.02067C.69487,77.38351,1.50749,77.95209,3.10786,78.06749Z"/><path class="cls-3" d="M12.2499,48.88789a2.658,2.658,0,0,0,.93757-.98044,1.15355,1.15355,0,0,0-.38858-1.71207c-.7348-.37693-1.39443.11646-1.75389.79727l-.207.39281-.52939-.27846.20752-.39281c.27052-.51246.34781-1.30232-.27-1.62843a.88875.88875,0,0,0-1.26791.50081,2.16089,2.16089,0,0,0-.20434,1.224l-.6104-.08577a2.80059,2.80059,0,0,1,.31711-1.57548,1.42875,1.42875,0,0,1,2.74969.77292l.01588.00847a1.536,1.536,0,0,1,1.95241-.4574,1.87309,1.87309,0,0,1,.56275,2.72639,3.00336,3.00336,0,0,1-1.06726,1.16891Z"/><path class="cls-3" d="M14.56919,40.551c1.71366,1.03762,2.27429,2.24676,1.59825,3.36379-.59716.98467-1.92436,1.09267-3.601.09741-1.69089-1.02386-2.179-2.31559-1.5596-3.33944C11.65116,39.60862,12.96353,39.57792,14.56919,40.551Zm-1.58184,2.78463c1.31079.793,2.30023.84174,2.6761.22234.42246-.6988-.19-1.52572-1.477-2.305-1.24091-.7528-2.24835-.9275-2.675-.22129C11.14929,41.62774,11.61569,42.50336,12.98735,43.33558Z"/><path class="cls-3" d="M17.25535,36.63024c1.64748,1.14032,2.134,2.38017,1.39231,3.45272-.65486.94656-1.98523.97515-3.59831-.11858-1.62524-1.12338-2.035-2.44264-1.35419-3.42626C14.40084,35.51639,15.71216,35.563,17.25535,36.63024Zm-1.74489,2.68192c1.26.87245,2.243.97939,2.65545.38328.46481-.67127-.09688-1.53207-1.33408-2.38863-1.19273-.8248-2.18694-1.05986-2.656-.38117C13.77933,37.49845,14.1912,38.4016,15.51046,39.31216Z"/><path class="cls-3" d="M38.319,18.46833a2.68209,2.68209,0,0,0,1.3039-.37587,1.153,1.153,0,0,0,.52464-1.674c-.4447-.69456-1.26156-.60033-1.91483-.1927l-.37693.23506-.31658-.50717.3764-.235c.49234-.30705.95609-.94974.586-1.5416a.88655.88655,0,0,0-1.34572-.20541,2.17369,2.17369,0,0,0-.793.95292l-.48387-.38011a2.79838,2.79838,0,0,1,1.06673-1.19961A1.427,1.427,0,0,1,38.931,15.39359l.009.01588a1.53279,1.53279,0,0,1,1.91589.58763,1.87049,1.87049,0,0,1-.88462,2.63534,2.98693,2.98693,0,0,1-1.50984.47328Z"/><path class="cls-3" d="M42.26038,16.05a2.67277,2.67277,0,0,0,1.324-.29752,1.15338,1.15338,0,0,0,.62575-1.639c-.40235-.721-1.224-.67657-1.90107-.30917l-.39069.21282-.28482-.52622.39017-.21176c.50981-.2774,1.01168-.89044.67816-1.50243a.88638.88638,0,0,0-1.33144-.288,2.16873,2.16873,0,0,0-.84915.90421l-.46005-.40869a2.80321,2.80321,0,0,1,1.13715-1.135,1.42748,1.42748,0,0,1,1.85765,2.16629l.009.01694a1.53566,1.53566,0,0,1,1.8783.702,1.87309,1.87309,0,0,1-1.044,2.57922,2.989,2.989,0,0,1-1.53631.38117Z"/><path class="cls-3" d="M48.81854,10.4035c.84863,1.81477.64428,3.13191-.53839,3.6846-1.04238.48705-2.20547-.15988-3.04668-1.91642-.83751-1.79042-.52622-3.13614.55746-3.64225C46.91536,8.00216,48.02445,8.70519,48.81854,10.4035ZM45.9598,11.8424c.64851,1.387,1.44367,1.97571,2.10012,1.66866.73957-.34623.68927-1.37326.05188-2.73592-.6141-1.31291-1.3542-2.01806-2.10118-1.66866C45.37853,9.40188,45.28006,10.38868,45.9598,11.8424Z"/><g class="cls-4"><path class="cls-5" d="M78.31332,56.02182V46.27669h1.37326L82.81,51.20643a27.60025,27.60025,0,0,1,1.74966,3.16685l.02858-.01376c-.1154-1.30232-.14452-2.48711-.14452-4.00542V46.27669h1.18585v9.74513H84.35692l-3.0938-4.94456a31.0222,31.0222,0,0,1-1.82218-3.25368l-.04341.01483c.07253,1.2282.10111,2.40028.10111,4.01918v4.16423Z"/><path class="cls-5" d="M111.59279,82.83788V79.04952h-3.51361V83.272h-1.05561V77.79167h9.74566v5.26327h-1.05562V79.04952h-3.08v3.78836Z"/><path class="cls-5" d="M84.49985,107.66659a4.455,4.455,0,0,0-2.25576-.63634c-1.287,0-2.0387.67975-2.0387,1.66231,0,.91056.5204,1.43149,1.83648,1.93759,1.5903.56434,2.57339,1.38808,2.57339,2.76134,0,1.51831-1.25784,2.647-3.152,2.647a4.42834,4.42834,0,0,1-2.15411-.47752l.34675-1.027a3.88009,3.88009,0,0,0,1.85078.4627c1.33037,0,1.83647-.79516,1.83647-1.46008,0-.91056-.59292-1.35949-1.93759-1.87936-1.648-.63633-2.48711-1.43149-2.48711-2.863,0-1.50348,1.11333-2.8058,3.4125-2.8058a5.0338,5.0338,0,0,1,2.4871.62257Z"/><path class="cls-5" d="M56.8844,85.21276,47.13874,87.685V86.3552l4.9308-1.15727c1.21444-.28905,2.42887-.54951,3.36908-.72315v-.02859c-.96879-.15882-2.12553-.46269-3.38337-.79515l-4.91651-1.30126V81.0337l4.94509-1.18585c1.15674-.27423,2.31347-.53469,3.34-.67869v-.02964c-1.06991-.20223-2.15412-.47646-3.36855-.78033l-4.91651-1.2875V75.78526l9.74566,2.76133v1.31608l-5.07532,1.22926a29.3184,29.3184,0,0,1-3.18062.63634v.02859a30.60369,30.60369,0,0,1,3.18062.75174l5.07532,1.38808Z"/></g><line class="cls-6" x1="81.69937" y1="89.52353" x2="81.69937" y2="84.0483"/><line class="cls-6" x1="81.69937" y1="79.13686" x2="81.69937" y2="73.54236"/><line class="cls-6" x1="79.19486" y1="81.53295" x2="73.70879" y2="81.53295"/><line class="cls-6" x1="89.68996" y1="81.53295" x2="84.11715" y2="81.53295"/></g></g></svg>