<svg id="Слой_1" data-name="Слой 1" xmlns="http://www.w3.org/2000/svg" viewBox="0 0 1213.75 1219.91"><defs><style>.cls-1,.cls-2{fill:none;stroke-linecap:round;}.cls-1,.cls-2,.cls-3{stroke:#fff;stroke-miterlimit:10;}.cls-1{stroke-width:4px;}.cls-2{stroke-width:2px;}.cls-3,.cls-4,.cls-5{fill:#fff;}.cls-4{font-size:65.59px;font-family:ArialMT, Arial;}</style></defs><line class="cls-1" x1="606.75" y1="185.47" x2="606.75" y2="79.8"/><line class="cls-2" x1="941.46" y1="280.31" x2="985.07" y2="236.69"/><line class="cls-2" x1="1036.3" y1="414.43" x2="1091.6" y2="388.6"/><line class="cls-1" x1="1029.93" y1="540.67" x2="1133.58" y2="522.46"/><line class="cls-1" x1="1011.89" y1="467.62" x2="1109.56" y2="432.09"/><line class="cls-1" x1="679.92" y1="191.69" x2="697.89" y2="87.75"/><line class="cls-1" x1="822.18" y1="242.58" x2="874.71" y2="151.77"/><line class="cls-1" x1="882.88" y1="285.78" x2="950.41" y2="205.27"/><line class="cls-2" x1="878.11" y1="227.22" x2="913.33" y2="176.89"/><line class="cls-1" x1="754.12" y1="211.42" x2="790.54" y2="111.65"/><line class="cls-2" x1="647" y1="143.65" x2="652.27" y2="81.77"/><line class="cls-2" x1="729.47" y1="156.72" x2="745.33" y2="97.49"/><line class="cls-2" x1="807.31" y1="186.23" x2="833.61" y2="129.99"/><line class="cls-1" x1="935.93" y1="339.07" x2="1017.01" y2="271.11"/><line class="cls-2" x1="995.38" y1="343.22" x2="1045.03" y2="308.5"/><line class="cls-1" x1="978.73" y1="400.07" x2="1070.6" y2="346.98"/><line class="cls-2" x1="1063.95" y1="492.23" x2="1123.41" y2="476.26"/><line class="cls-2" x1="1079.47" y1="573.99" x2="1139.62" y2="568.77"/><line class="cls-1" x1="1035.93" y1="616.54" x2="1141.6" y2="616.54"/><line class="cls-2" x1="941.09" y1="951.25" x2="984.71" y2="994.86"/><line class="cls-2" x1="806.97" y1="1046.09" x2="832.8" y2="1101.39"/><line class="cls-1" x1="680.73" y1="1039.72" x2="698.94" y2="1143.37"/><line class="cls-1" x1="753.78" y1="1021.68" x2="789.31" y2="1119.35"/><line class="cls-1" x1="1029.71" y1="689.71" x2="1133.65" y2="707.68"/><line class="cls-1" x1="978.81" y1="831.97" x2="1069.63" y2="884.5"/><line class="cls-1" x1="935.62" y1="892.67" x2="1016.13" y2="960.2"/><line class="cls-2" x1="994.18" y1="887.9" x2="1044.51" y2="923.12"/><line class="cls-1" x1="1009.98" y1="763.91" x2="1109.75" y2="800.33"/><line class="cls-2" x1="1077.75" y1="656.79" x2="1139.63" y2="662.06"/><line class="cls-2" x1="1064.68" y1="739.26" x2="1123.91" y2="755.12"/><line class="cls-2" x1="1035.17" y1="817.1" x2="1091.41" y2="843.4"/><line class="cls-1" x1="882.33" y1="945.72" x2="950.29" y2="1026.8"/><line class="cls-2" x1="878.18" y1="1005.17" x2="912.9" y2="1054.82"/><line class="cls-1" x1="821.33" y1="988.52" x2="874.42" y2="1080.39"/><line class="cls-2" x1="729.17" y1="1073.74" x2="745.14" y2="1133.2"/><line class="cls-2" x1="647.41" y1="1089.26" x2="652.63" y2="1149.41"/><line class="cls-1" x1="609.68" y1="1045.68" x2="609.68" y2="1151.35"/><line class="cls-2" x1="274.97" y1="950.84" x2="231.36" y2="994.45"/><line class="cls-2" x1="180.13" y1="816.72" x2="124.83" y2="842.55"/><line class="cls-1" x1="186.51" y1="690.48" x2="82.85" y2="708.69"/><line class="cls-1" x1="204.54" y1="763.53" x2="106.87" y2="799.06"/><line class="cls-1" x1="536.51" y1="1039.45" x2="518.55" y2="1143.39"/><line class="cls-1" x1="394.25" y1="988.56" x2="341.73" y2="1079.37"/><line class="cls-1" x1="333.55" y1="945.36" x2="266.02" y2="1025.88"/><line class="cls-2" x1="338.32" y1="1003.93" x2="303.1" y2="1054.26"/><line class="cls-1" x1="462.32" y1="1019.73" x2="425.89" y2="1119.49"/><line class="cls-2" x1="569.44" y1="1087.5" x2="564.16" y2="1149.38"/><line class="cls-2" x1="486.96" y1="1074.43" x2="471.1" y2="1133.66"/><line class="cls-2" x1="409.12" y1="1044.92" x2="382.82" y2="1101.16"/><line class="cls-1" x1="280.5" y1="892.08" x2="199.43" y2="960.04"/><line class="cls-2" x1="221.05" y1="887.93" x2="171.4" y2="922.65"/><line class="cls-1" x1="237.7" y1="831.08" x2="145.83" y2="884.16"/><line class="cls-2" x1="152.48" y1="738.92" x2="93.02" y2="754.88"/><line class="cls-2" x1="136.96" y1="657.16" x2="76.81" y2="662.38"/><line class="cls-1" x1="180.5" y1="614.61" x2="74.83" y2="614.61"/><line class="cls-2" x1="275.34" y1="279.9" x2="231.73" y2="236.28"/><line class="cls-2" x1="409.46" y1="185.06" x2="383.63" y2="129.75"/><line class="cls-1" x1="535.7" y1="191.43" x2="517.49" y2="87.78"/><line class="cls-1" x1="462.65" y1="209.47" x2="427.12" y2="111.8"/><line class="cls-1" x1="186.73" y1="541.44" x2="82.78" y2="523.47"/><line class="cls-1" x1="237.62" y1="399.18" x2="146.8" y2="346.65"/><line class="cls-1" x1="280.81" y1="338.47" x2="200.3" y2="270.95"/><line class="cls-2" x1="222.25" y1="343.24" x2="171.92" y2="308.02"/><line class="cls-1" x1="206.45" y1="467.24" x2="106.69" y2="430.82"/><line class="cls-2" x1="138.68" y1="574.36" x2="76.8" y2="569.09"/><line class="cls-2" x1="151.75" y1="491.88" x2="92.52" y2="476.02"/><line class="cls-2" x1="181.26" y1="414.05" x2="125.02" y2="387.74"/><line class="cls-1" x1="334.1" y1="285.42" x2="266.14" y2="204.35"/><line class="cls-2" x1="338.25" y1="225.97" x2="303.53" y2="176.33"/><line class="cls-1" x1="395.1" y1="242.63" x2="342.02" y2="150.76"/><line class="cls-2" x1="487.26" y1="157.41" x2="471.3" y2="97.94"/><line class="cls-2" x1="569.02" y1="141.88" x2="563.8" y2="81.73"/><path class="cls-3" d="M746.32,1044.74l-8.09.71a17.84,17.84,0,0,0-2.67-8,14.61,14.61,0,0,0-6.52-5,24.65,24.65,0,0,0-9.94-1.92,23.8,23.8,0,0,0-8.65,1.45,12.05,12.05,0,0,0-5.59,4,9.31,9.31,0,0,0-1.84,5.55,8.48,8.48,0,0,0,1.77,5.32,13.06,13.06,0,0,0,5.83,3.82,114.5,114.5,0,0,0,11.53,3.16q8.93,2.15,12.5,4a17.52,17.52,0,0,1,6.92,6,14.83,14.83,0,0,1,2.27,8.06,16.5,16.5,0,0,1-2.78,9.17,17.22,17.22,0,0,1-8.13,6.47,30.85,30.85,0,0,1-11.88,2.21,32.37,32.37,0,0,1-12.7-2.32,18.32,18.32,0,0,1-8.46-6.82,19.69,19.69,0,0,1-3.18-10.21l8.21-.62q.66,6.15,4.49,9.28t11.28,3.14q7.78,0,11.33-2.85a8.53,8.53,0,0,0,3.56-6.87,7.38,7.38,0,0,0-2.52-5.75q-2.47-2.25-12.92-4.61T705.81,1058a19.65,19.65,0,0,1-8.35-6.61,16,16,0,0,1-2.7-9.21,17.66,17.66,0,0,1,3-9.74,19.48,19.48,0,0,1,8.51-7.11,29.67,29.67,0,0,1,12.48-2.54,37.22,37.22,0,0,1,14.73,2.56,20.64,20.64,0,0,1,9.32,7.71A21.9,21.9,0,0,1,746.32,1044.74Z" transform="translate(-110.86 -77.47)"/><path class="cls-3" d="M692.1,354.73V290h8.79l34,50.85V290h8.22v64.76h-8.79l-34-50.89v50.89Z" transform="translate(-110.86 -77.47)"/><path class="cls-3" d="M402.25,718.46l-64.76,17.18v-8.79L379.94,717q6.68-1.59,13.25-2.74-10.38-2.47-12-2.92L337.49,699V688.68l32.78-9.27a173.24,173.24,0,0,1,22.92-5q-6.13-1.23-14.09-3.23L337.49,661v-8.61l64.76,17.76v8.26L352.91,692q-6.2,1.73-7.6,2,4.45,1,7.6,1.9l49.34,13.74Z" transform="translate(-110.86 -77.47)"/><path class="cls-3" d="M1031.17,673.92h64.76v46.83h-7.64V682.49h-19.84v35.83h-7.59V682.49h-22v39.76h-7.64Z" transform="translate(-110.86 -77.47)"/><text class="cls-4" transform="translate(589.33 56.29)">0</text><path class="cls-5" d="M971.81,185.44l5.24,2.52q-1.84,4.64-1,7.76a8.36,8.36,0,0,0,3.68,5,9.32,9.32,0,0,0,7.29,1.41,9.52,9.52,0,0,0,6.17-4.3,8.85,8.85,0,0,0-2.69-12.68,16.31,16.31,0,0,0-3.75-1.69l3.31-3.88c.3.24.54.43.74.56a11.94,11.94,0,0,0,6.6,2,6.58,6.58,0,0,0,5.71-3.34,7,7,0,0,0,1.08-5.57,7.6,7.6,0,0,0-3.49-4.78,7.87,7.87,0,0,0-5.84-1.31,10.57,10.57,0,0,0-5.89,3.73l-4.26-4a14.82,14.82,0,0,1,8.94-4.88,13.88,13.88,0,0,1,9.54,2.44,15.36,15.36,0,0,1,5,5.26,11.9,11.9,0,0,1,1.67,6.48,11.52,11.52,0,0,1-1.88,6,10,10,0,0,1-4.4,3.74,11.23,11.23,0,0,1-6.23.67,10.91,10.91,0,0,1,3.23,6.88,12.1,12.1,0,0,1-2.23,7.6,13.82,13.82,0,0,1-9.46,6.26,15.71,15.71,0,0,1-11.82-2.64,14.72,14.72,0,0,1-6.57-8.7A14.25,14.25,0,0,1,971.81,185.44Z" transform="translate(-110.86 -77.47)"/><path class="cls-5" d="M1008.19,196.42a43.18,43.18,0,0,1,8.78-10.28,16.67,16.67,0,0,1,8.56-3.75,13,13,0,0,1,8.62,2.35,13.9,13.9,0,0,1,4.71,4.91,12.72,12.72,0,0,1,1.53,6.25,23.34,23.34,0,0,1-1.39,7.44,46.43,46.43,0,0,1-5.2,9.86,43.3,43.3,0,0,1-8.73,10.23,16.67,16.67,0,0,1-8.54,3.78,13,13,0,0,1-8.66-2.36,12.89,12.89,0,0,1-6.25-9.92Q1000.95,207.48,1008.19,196.42Zm5,3.24q-6.33,9.68-6.17,14.36t3.49,6.86q3.31,2.18,7.69.45T1028.85,210q6.35-9.69,6.18-14.37a8,8,0,0,0-3.55-6.88,7.39,7.39,0,0,0-7.15-.66Q1019.49,190,1013.15,199.66Z" transform="translate(-110.86 -77.47)"/><path class="cls-5" d="M1227.84,393.48l-3.48-4.59a10.89,10.89,0,0,0,3-4.49,7.66,7.66,0,0,0-1-6.19,7.9,7.9,0,0,0-3.91-3.24,13.15,13.15,0,0,0-7.19-.48c-2.7.49-6,2-10,4.49a13.45,13.45,0,0,1,6.71,1.74,13.73,13.73,0,0,1,4.7,4.48,13.08,13.08,0,0,1,1.73,10.56,15.22,15.22,0,0,1-7,9.33,18.11,18.11,0,0,1-7.94,2.83,13.79,13.79,0,0,1-7.72-1.27,14.37,14.37,0,0,1-5.79-5.27,14.76,14.76,0,0,1-1.88-12.75q2-6.69,12.25-13.26,11.44-7.37,19.37-6.46a14.44,14.44,0,0,1,10.91,7,12.58,12.58,0,0,1-2.64,17.53Zm-29.75-8.88a13.45,13.45,0,0,0-4.12,4.14,9.52,9.52,0,0,0-1.58,5.22,8.85,8.85,0,0,0,1.38,4.78,8.17,8.17,0,0,0,5.87,3.7,11.63,11.63,0,0,0,8.16-2.12,10.81,10.81,0,0,0,5-6.32,8.53,8.53,0,0,0-1.17-7,8.87,8.87,0,0,0-5.94-4.06A10.07,10.07,0,0,0,1198.09,384.6Z" transform="translate(-110.86 -77.47)"/><path class="cls-5" d="M1221,405.64a43,43,0,0,1,12.21-5.8,16.76,16.76,0,0,1,9.34.06,13,13,0,0,1,6.91,5.67,13.83,13.83,0,0,1,2.3,6.4,12.68,12.68,0,0,1-1.15,6.33,23.52,23.52,0,0,1-4.3,6.23,46.81,46.81,0,0,1-8.77,6.88,43.42,43.42,0,0,1-12.14,5.78,16.72,16.72,0,0,1-9.35,0,13,13,0,0,1-6.94-5.68,12.87,12.87,0,0,1-1.66-11.61Q1209.9,412.78,1221,405.64Zm3.2,5q-9.72,6.24-11.49,10.59c-1.17,2.89-1,5.46.39,7.69s3.71,3.4,6.84,3.54,7.93-1.88,14.4-6,10.34-7.7,11.5-10.59a8,8,0,0,0-.43-7.74,7.42,7.42,0,0,0-6.26-3.52Q1234,404.39,1224.23,410.63Z" transform="translate(-110.86 -77.47)"/><path class="cls-5" d="M1288.32,661.32l.52,5.54a9.63,9.63,0,0,0-5.67,2.69,7.38,7.38,0,0,0-1.76,5.1,8.82,8.82,0,0,0,1.21,4.66,10.18,10.18,0,0,0,3.25,3.28,19.38,19.38,0,0,0,5.5,2.15,29.18,29.18,0,0,0,7,.86l1.16,0a13.2,13.2,0,0,1-4.47-4.73,12.84,12.84,0,0,1-1.71-6.48,13.16,13.16,0,0,1,4.22-9.87q4.23-4,11.15-4,7.14,0,11.5,4.21a14.07,14.07,0,0,1,4.35,10.55,15,15,0,0,1-2.47,8.38,15.34,15.34,0,0,1-7,5.76q-4.57,2-13.22,2-9,0-14.33-2a16.82,16.82,0,0,1-8.12-5.81,15.11,15.11,0,0,1-2.78-9.05,12.4,12.4,0,0,1,11.65-13.2Zm20.73,23.61a11.24,11.24,0,0,0,7.87-2.65,8.26,8.26,0,0,0,2.92-6.35,8.8,8.8,0,0,0-3.14-6.7,11.63,11.63,0,0,0-8.14-2.85,10,10,0,0,0-7.28,2.71,8.9,8.9,0,0,0-2.8,6.68,8.54,8.54,0,0,0,2.8,6.58A11.09,11.09,0,0,0,1309.05,684.93Z" transform="translate(-110.86 -77.47)"/><path class="cls-5" d="M1300.62,696.94a43.12,43.12,0,0,1,13.41,1.71,16.71,16.71,0,0,1,7.83,5.09,13.08,13.08,0,0,1,2.75,8.51,13.76,13.76,0,0,1-1.52,6.62,12.67,12.67,0,0,1-4.39,4.71,23.66,23.66,0,0,1-7,2.92,46.65,46.65,0,0,1-11.1,1,43.19,43.19,0,0,1-13.34-1.69,16.65,16.65,0,0,1-7.84-5.08,14.3,14.3,0,0,1,2.09-19.2Q1287.4,696.93,1300.62,696.94Zm0,5.92q-11.55,0-15.39,2.71t-3.82,6.68c0,2.64,1.28,4.87,3.84,6.67s7.69,2.71,15.37,2.71,12.87-.9,15.41-2.71a8,8,0,0,0,3.81-6.74,7.38,7.38,0,0,0-3.36-6.34Q1312.17,702.86,1300.62,702.86Z" transform="translate(-110.86 -77.47)"/><path class="cls-5" d="M1218.28,955.06l3-4.92,31.36,19.13a29.32,29.32,0,0,1-.54-6.73,38.24,38.24,0,0,1,.61-6.73l4.76,2.9a35.18,35.18,0,0,0,.3,10.09,21.61,21.61,0,0,0,2.69,7.64l-1.94,3.17Z" transform="translate(-110.86 -77.47)"/><path class="cls-5" d="M1199.54,996.42l-4.73-2.89L1211,967a10.06,10.06,0,0,1,3.07,2.66,21.24,21.24,0,0,1,3.36,6.49,60.27,60.27,0,0,1,2.14,10.14q1.37,9.79,3.1,14a11.94,11.94,0,0,0,4.52,5.91,7.69,7.69,0,0,0,6.21.91,8.82,8.82,0,0,0,5.34-4.22,9,9,0,0,0,1.33-7,9.47,9.47,0,0,0-4.58-5.77l3.6-4.74q5.34,4,6.24,9.18t-2.59,10.91q-3.51,5.78-8.76,7.18a12.32,12.32,0,0,1-10-1.47,14.06,14.06,0,0,1-4.13-3.87,21.66,21.66,0,0,1-2.91-6.25,94.42,94.42,0,0,1-2.42-11.89q-1-6.71-1.58-8.77a18.63,18.63,0,0,0-1.4-3.7Z" transform="translate(-110.86 -77.47)"/><path class="cls-5" d="M1211.36,1010.86a42.79,42.79,0,0,1,10.55,8.45,16.64,16.64,0,0,1,4,8.42,13.06,13.06,0,0,1-2.08,8.7,13.76,13.76,0,0,1-4.75,4.86,12.61,12.61,0,0,1-6.2,1.74,23.57,23.57,0,0,1-7.48-1.15,46.37,46.37,0,0,1-10-4.88,43.38,43.38,0,0,1-10.51-8.39,16.66,16.66,0,0,1-4.05-8.42,13,13,0,0,1,2.08-8.73,12.91,12.91,0,0,1,9.71-6.57Q1200.07,1004,1211.36,1010.86Zm-3.08,5.06q-9.87-6-14.55-5.7t-6.74,3.71q-2.07,3.39-.2,7.7t11.72,10.32q9.88,6,14.55,5.71a8,8,0,0,0,6.77-3.77,7.4,7.4,0,0,0,.43-7.17Q1218.15,1022,1208.28,1015.92Z" transform="translate(-110.86 -77.47)"/><path class="cls-5" d="M1024,1163.07l4.81-3.18,20.22,30.67a30,30,0,0,1,2.37-6.32,38.44,38.44,0,0,1,3.43-5.82l3.07,4.65a34.78,34.78,0,0,0-4,9.25,21.56,21.56,0,0,0-.82,8.06l-3.11,2Z" transform="translate(-110.86 -77.47)"/><path class="cls-5" d="M1018.46,1181.46l-4.77,3.76a10.9,10.9,0,0,0-6.27-3.83,8.48,8.48,0,0,0-6.16,1.39,9.23,9.23,0,0,0-4.15,6.5,11.81,11.81,0,0,0,2.18,8.54,10.65,10.65,0,0,0,6.59,5,9.65,9.65,0,0,0,7.63-1.61,10.13,10.13,0,0,0,3.5-3.82,9.79,9.79,0,0,0,1.13-4.68l4.91-2.39,9.48,22.64-19.5,12.85-3-4.6,15.64-10.32-4.83-11.92a15.27,15.27,0,0,1-5.78,7.34,14.08,14.08,0,0,1-11,2.15,14.88,14.88,0,0,1-9.56-6.82,17,17,0,0,1-3-11.24,14.86,14.86,0,0,1,7.16-11.54,15.17,15.17,0,0,1,10.7-2.76A14,14,0,0,1,1018.46,1181.46Z" transform="translate(-110.86 -77.47)"/><path class="cls-5" d="M994,1210.6a42.91,42.91,0,0,1,5.95,12.14,16.66,16.66,0,0,1,.05,9.34,13,13,0,0,1-5.58,7,13.82,13.82,0,0,1-6.37,2.37,12.57,12.57,0,0,1-6.34-1.07,23.46,23.46,0,0,1-6.28-4.22,46.43,46.43,0,0,1-7-8.69,43.22,43.22,0,0,1-5.93-12.07,16.68,16.68,0,0,1-.08-9.34,13,13,0,0,1,5.6-7,12.86,12.86,0,0,1,11.59-1.81Q986.7,1199.56,994,1210.6Zm-5,3.26q-6.36-9.64-10.73-11.36t-7.68.48q-3.32,2.19-3.46,6.89t6.2,14.32q6.39,9.69,10.74,11.38a8.06,8.06,0,0,0,7.73-.53,7.38,7.38,0,0,0,3.44-6.3Q995.41,1223.52,989,1213.86Z" transform="translate(-110.86 -77.47)"/><path class="cls-5" d="M755.55,1250.23h5.76V1287a29.72,29.72,0,0,1,5.47-4,39.8,39.8,0,0,1,6.06-3v5.58a34.54,34.54,0,0,0-8.45,5.51,21.69,21.69,0,0,0-5.13,6.27h-3.71Z" transform="translate(-110.86 -77.47)"/><path class="cls-5" d="M731.91,1275.69a10.9,10.9,0,0,1,5.32,3.75,9.83,9.83,0,0,1,1.73,5.83,11.4,11.4,0,0,1-3.68,8.61q-3.69,3.49-9.81,3.49a13.74,13.74,0,0,1-9.89-3.57,11.55,11.55,0,0,1-3.75-8.69,9.62,9.62,0,0,1,1.71-5.69,10.89,10.89,0,0,1,5.21-3.73,12,12,0,0,1-8.84-12,13.47,13.47,0,0,1,4.26-10.12q4.26-4.1,11.21-4.1t11.21,4.12a13.67,13.67,0,0,1,4.26,10.26,12.46,12.46,0,0,1-2.32,7.67A11.67,11.67,0,0,1,731.91,1275.69Zm3-11.91a10.37,10.37,0,0,0-1.17-4.77,8.27,8.27,0,0,0-3.47-3.58,10.2,10.2,0,0,0-5-1.26,9.33,9.33,0,0,0-6.82,2.66,9.1,9.1,0,0,0-2.69,6.76,9.26,9.26,0,0,0,2.77,6.88,9.48,9.48,0,0,0,6.94,2.72,9.16,9.16,0,0,0,9.41-9.41Zm-1.86,21.68a7.32,7.32,0,0,0-2.14-5.45,7.64,7.64,0,0,0-5.57-2.11,7.45,7.45,0,0,0-5.46,2.1,6.94,6.94,0,0,0-2.13,5.14,7.2,7.2,0,0,0,2.19,5.33,7.46,7.46,0,0,0,5.46,2.16,7.54,7.54,0,0,0,5.48-2.11A6.8,6.8,0,0,0,733.06,1285.46Z" transform="translate(-110.86 -77.47)"/><path class="cls-5" d="M704.31,1273.39a43,43,0,0,1-1.72,13.4,16.71,16.71,0,0,1-5.09,7.83,13,13,0,0,1-8.5,2.75,13.8,13.8,0,0,1-6.63-1.52,12.64,12.64,0,0,1-4.71-4.38,23.73,23.73,0,0,1-2.92-7,46.62,46.62,0,0,1-1-11.09,42.8,42.8,0,0,1,1.7-13.34,16.67,16.67,0,0,1,5.07-7.85,13,13,0,0,1,8.54-2.77,12.87,12.87,0,0,1,10.66,4.87Q704.31,1260.17,704.31,1273.39Zm-5.93,0q0-11.57-2.7-15.39c-1.81-2.56-4-3.83-6.68-3.83s-4.88,1.28-6.68,3.84-2.71,7.69-2.71,15.38.9,12.86,2.71,15.4a8,8,0,0,0,6.74,3.81,7.38,7.38,0,0,0,6.34-3.36Q698.39,1285,698.38,1273.39Z" transform="translate(-110.86 -77.47)"/><path class="cls-5" d="M456.34,1194.9,459,1190l27.29,14.79a10.31,10.31,0,0,1-2.5,3.2,21.13,21.13,0,0,1-6.32,3.68,58.67,58.67,0,0,1-10,2.66q-9.72,1.88-13.84,3.81a11.94,11.94,0,0,0-5.67,4.82,7.69,7.69,0,0,0-.6,6.25,8.83,8.83,0,0,0,4.5,5.11,9,9,0,0,0,7,1,9.49,9.49,0,0,0,5.53-4.88l4.91,3.36q-3.69,5.54-8.84,6.7t-11-2q-5.94-3.21-7.62-8.39a12.29,12.29,0,0,1,1-10,14,14,0,0,1,3.65-4.32,21.54,21.54,0,0,1,6.1-3.22,94.85,94.85,0,0,1,11.75-3q6.63-1.35,8.67-2a19,19,0,0,0,3.63-1.58Z" transform="translate(-110.86 -77.47)"/><path class="cls-5" d="M434.46,1176.74l5.07,2.75L422,1211.78a29.9,29.9,0,0,1,6.7-.89,37.92,37.92,0,0,1,6.75.28l-2.66,4.9a34.43,34.43,0,0,0-10.05.81,21.48,21.48,0,0,0-7.5,3.08l-3.27-1.78Z" transform="translate(-110.86 -77.47)"/><path class="cls-5" d="M410.45,1190.06a43,43,0,0,1-7.9,11,16.61,16.61,0,0,1-8.21,4.45,13,13,0,0,1-8.79-1.63,14,14,0,0,1-5.1-4.49,12.66,12.66,0,0,1-2-6.1,23.41,23.41,0,0,1,.76-7.53,46.32,46.32,0,0,1,4.36-10.26,43.29,43.29,0,0,1,7.85-10.92,16.65,16.65,0,0,1,8.2-4.48,14.29,14.29,0,0,1,15.88,11Q416.75,1178.44,410.45,1190.06Zm-5.21-2.82q5.5-10.17,4.95-14.82c-.37-3.1-1.72-5.29-4-6.55s-4.9-1.2-7.71.2-6,5.46-9.7,12.22-5.34,11.74-5,14.84a8,8,0,0,0,4.11,6.56,7.37,7.37,0,0,0,7.17.06Q399.73,1197.41,405.24,1187.24Z" transform="translate(-110.86 -77.47)"/><path class="cls-5" d="M248.33,997.82l4.62-3.06,17.12,25.89a10.05,10.05,0,0,1-3.71,1.64,20.87,20.87,0,0,1-7.3.28,58.91,58.91,0,0,1-10.09-2.36q-9.47-2.93-14-3.14a11.91,11.91,0,0,0-7.27,1.58,7.71,7.71,0,0,0-3.47,5.24,8.81,8.81,0,0,0,1.56,6.62,9,9,0,0,0,5.76,4.18,9.46,9.46,0,0,0,7.17-1.71l2.76,5.28q-5.86,3.15-11,1.75t-8.78-7q-3.74-5.64-2.77-11a12.29,12.29,0,0,1,5.57-8.41,14,14,0,0,1,5.25-2.1,21.54,21.54,0,0,1,6.9,0,93.69,93.69,0,0,1,11.79,2.85c4.33,1.29,7.2,2.05,8.61,2.3a19,19,0,0,0,3.94.31Z" transform="translate(-110.86 -77.47)"/><path class="cls-5" d="M239.34,974.2,230,980.4l11.23,17-4.4,2.91-37.2-1.08L197,995.3l25.38-16.79-3.5-5.29,4.41-2.92,3.49,5.29,9.38-6.2Zm-13.78,9.12L207.9,995l25.77.58Z" transform="translate(-110.86 -77.47)"/><path class="cls-5" d="M210.1,972a42.81,42.81,0,0,1-12.13,6,16.68,16.68,0,0,1-9.34.08,13.09,13.09,0,0,1-7-5.58,13.81,13.81,0,0,1-2.38-6.36,12.6,12.6,0,0,1,1.06-6.35,23.41,23.41,0,0,1,4.21-6.28,46.17,46.17,0,0,1,8.67-7,43.1,43.1,0,0,1,12.06-5.94,16.63,16.63,0,0,1,9.35-.1,13,13,0,0,1,7,5.59,12.87,12.87,0,0,1,1.82,11.58Q221.13,964.67,210.1,972Zm-3.27-5q9.64-6.37,11.34-10.74t-.49-7.69q-2.19-3.3-6.89-3.45t-14.32,6.23q-9.66,6.4-11.35,10.76a8,8,0,0,0,.54,7.72,7.38,7.38,0,0,0,6.3,3.44Q197.2,973.4,206.83,967Z" transform="translate(-110.86 -77.47)"/><path class="cls-5" d="M152.46,706H158v31a10.24,10.24,0,0,1-4-.67,21.15,21.15,0,0,1-6.25-3.8,59.93,59.93,0,0,1-7.11-7.54q-6.27-7.65-9.94-10.35a12,12,0,0,0-6.94-2.69,7.72,7.72,0,0,0-5.78,2.45,8.85,8.85,0,0,0-2.35,6.39,9,9,0,0,0,2.5,6.66,9.41,9.41,0,0,0,6.91,2.53l-.6,5.93q-6.63-.62-10.11-4.58t-3.47-10.67q0-6.75,3.74-10.69a12.3,12.3,0,0,1,9.29-3.94,14,14,0,0,1,5.54,1.15,21.42,21.42,0,0,1,5.73,3.83,93.37,93.37,0,0,1,8.27,8.88q4.35,5.19,5.91,6.67a18.61,18.61,0,0,0,3.12,2.43Z" transform="translate(-110.86 -77.47)"/><path class="cls-5" d="M117.2,699.48h-5.54v-30.4h4.48A63.82,63.82,0,0,0,128.82,678a77.17,77.17,0,0,0,16.27,6.81A60.64,60.64,0,0,0,158,687v5.92a57.72,57.72,0,0,1-13.39-2.17,70.18,70.18,0,0,1-15.13-6,64.32,64.32,0,0,1-12.28-8.28Z" transform="translate(-110.86 -77.47)"/><path class="cls-5" d="M134.84,663.39a43,43,0,0,1-13.4-1.72,16.71,16.71,0,0,1-7.83-5.09,13,13,0,0,1-2.75-8.5,13.8,13.8,0,0,1,1.52-6.63,12.59,12.59,0,0,1,4.39-4.71,23.55,23.55,0,0,1,7-2.92,46.62,46.62,0,0,1,11.09-1.05,43.26,43.26,0,0,1,13.35,1.69,16.78,16.78,0,0,1,7.84,5.08,13,13,0,0,1,2.77,8.54,12.87,12.87,0,0,1-4.87,10.66Q148.07,663.39,134.84,663.39Zm0-5.93q11.57,0,15.39-2.71c2.56-1.8,3.83-4,3.83-6.67s-1.28-4.88-3.84-6.68-7.69-2.71-15.38-2.71-12.86.9-15.4,2.71a8,8,0,0,0-3.81,6.74,7.38,7.38,0,0,0,3.36,6.34Q123.28,657.47,134.84,657.46Z" transform="translate(-110.86 -77.47)"/><path class="cls-5" d="M203.86,454l2.28-5.35q4.71,1.65,7.79.69a8.37,8.37,0,0,0,4.83-3.89,9.35,9.35,0,0,0,1.08-7.35,9.49,9.49,0,0,0-4.58-6,8.85,8.85,0,0,0-7-1.11,8.94,8.94,0,0,0-5.58,4.36,16.78,16.78,0,0,0-1.52,3.83l-4-3.14a7.93,7.93,0,0,0,.53-.76,11.9,11.9,0,0,0,1.73-6.69,6.58,6.58,0,0,0-3.59-5.55,7,7,0,0,0-5.62-.83,7.58,7.58,0,0,0-4.61,3.7,7.87,7.87,0,0,0-1,5.9,10.57,10.57,0,0,0,4,5.71L184.73,442a14.89,14.89,0,0,1-5.28-8.71,13.9,13.9,0,0,1,2-9.65,15.3,15.3,0,0,1,5-5.24,11.87,11.87,0,0,1,6.4-2A11.49,11.49,0,0,1,199,418a9.9,9.9,0,0,1,3.93,4.23,11.06,11.06,0,0,1,.95,6.18,10.94,10.94,0,0,1,6.73-3.53,12.2,12.2,0,0,1,7.69,1.88A13.82,13.82,0,0,1,225,436a15.75,15.75,0,0,1-2.1,11.93,14.78,14.78,0,0,1-8.41,6.95A14.23,14.23,0,0,1,203.86,454Z" transform="translate(-110.86 -77.47)"/><path class="cls-5" d="M213.19,417.16a42.88,42.88,0,0,1-10.66-8.31,16.73,16.73,0,0,1-4.13-8.37,13,13,0,0,1,2-8.72,13.94,13.94,0,0,1,4.69-4.93,12.74,12.74,0,0,1,6.18-1.81,23.65,23.65,0,0,1,7.49,1.05,46.41,46.41,0,0,1,10.08,4.76,43,43,0,0,1,10.61,8.26,16.63,16.63,0,0,1,4.16,8.37A14.29,14.29,0,0,1,232,422.9Q224.57,423.91,213.19,417.16Zm3-5.1q9.94,5.91,14.62,5.53c3.11-.26,5.35-1.52,6.7-3.8s1.38-4.84.1-7.7-5.23-6.25-11.85-10.17-11.52-5.78-14.63-5.53a8,8,0,0,0-6.71,3.86,7.39,7.39,0,0,0-.35,7.17Q206.27,406.17,216.21,412.06Z" transform="translate(-110.86 -77.47)"/><path class="cls-5" d="M231.79,385.79a43.23,43.23,0,0,1-10.65-8.32A16.63,16.63,0,0,1,217,369.1a13,13,0,0,1,2-8.72,13.74,13.74,0,0,1,4.69-4.92,12.64,12.64,0,0,1,6.17-1.82,23.32,23.32,0,0,1,7.49,1.06,45.87,45.87,0,0,1,10.09,4.75A43.18,43.18,0,0,1,258,367.71a16.71,16.71,0,0,1,4.16,8.37,13,13,0,0,1-2,8.75,12.86,12.86,0,0,1-9.63,6.69Q243.17,392.54,231.79,385.79Zm3-5.1q9.94,5.9,14.61,5.52c3.12-.25,5.35-1.52,6.7-3.79s1.38-4.85.1-7.71-5.23-6.25-11.84-10.17-11.53-5.78-14.63-5.53a8.05,8.05,0,0,0-6.72,3.86,7.4,7.4,0,0,0-.34,7.17Q224.88,374.79,234.82,380.69Z" transform="translate(-110.86 -77.47)"/><path class="cls-5" d="M392.27,224.65l4.65-3.48q3.27,3.78,6.4,4.51a8.38,8.38,0,0,0,6.13-1,9.33,9.33,0,0,0,4.62-5.82,9.5,9.5,0,0,0-1-7.46,8.82,8.82,0,0,0-5.47-4.44,9,9,0,0,0-7,1,16.82,16.82,0,0,0-3.24,2.55l-1.91-4.73a8.61,8.61,0,0,0,.84-.4,11.86,11.86,0,0,0,4.84-4.91,6.58,6.58,0,0,0-.32-6.61,7.06,7.06,0,0,0-4.44-3.54,7.61,7.61,0,0,0-5.85.9,7.84,7.84,0,0,0-3.86,4.58,10.62,10.62,0,0,0,.59,6.94l-5.53,1.93a14.8,14.8,0,0,1-.2-10.19,13.92,13.92,0,0,1,6.57-7.34,15.42,15.42,0,0,1,7-2,11.93,11.93,0,0,1,6.51,1.51,11.6,11.6,0,0,1,4.46,4.44,9.89,9.89,0,0,1,1.28,5.63,11.1,11.1,0,0,1-2.27,5.83,10.93,10.93,0,0,1,7.59.32,12.14,12.14,0,0,1,5.71,5.48,13.86,13.86,0,0,1,1.19,11.29,15.85,15.85,0,0,1-7.8,9.27A14.79,14.79,0,0,1,401,230.7,14.23,14.23,0,0,1,392.27,224.65Z" transform="translate(-110.86 -77.47)"/><path class="cls-5" d="M424.09,206.82l4.66-3.49c2.17,2.53,4.31,4,6.4,4.51a8.35,8.35,0,0,0,6.12-1,9.33,9.33,0,0,0,4.62-5.82,9.5,9.5,0,0,0-1-7.46,8.85,8.85,0,0,0-5.46-4.45,9,9,0,0,0-7,1,16.13,16.13,0,0,0-3.23,2.55L427.29,188a6.82,6.82,0,0,0,.84-.4,11.88,11.88,0,0,0,4.85-4.91,6.58,6.58,0,0,0-.33-6.61,7,7,0,0,0-4.44-3.54,7.61,7.61,0,0,0-5.85.9A7.87,7.87,0,0,0,418.5,178a10.62,10.62,0,0,0,.59,6.94l-5.53,1.92a14.83,14.83,0,0,1-.2-10.18,13.88,13.88,0,0,1,6.57-7.34,15.46,15.46,0,0,1,7-2,12,12,0,0,1,6.52,1.51,11.58,11.58,0,0,1,4.45,4.44,10,10,0,0,1,1.29,5.63,11.2,11.2,0,0,1-2.28,5.83,10.87,10.87,0,0,1,7.59.32,12.15,12.15,0,0,1,5.72,5.48,13.88,13.88,0,0,1,1.18,11.28,15.77,15.77,0,0,1-7.8,9.28,14.77,14.77,0,0,1-10.75,1.8A14.26,14.26,0,0,1,424.09,206.82Z" transform="translate(-110.86 -77.47)"/><path class="cls-5" d="M450.63,179.62a42.84,42.84,0,0,1-5.06-12.53,16.62,16.62,0,0,1,.62-9.32,13,13,0,0,1,6.07-6.56,13.8,13.8,0,0,1,6.52-1.91,12.59,12.59,0,0,1,6.25,1.52,23.32,23.32,0,0,1,6,4.67,46.4,46.4,0,0,1,6.35,9.16,43.26,43.26,0,0,1,5,12.47,16.65,16.65,0,0,1-.59,9.32,13,13,0,0,1-6.1,6.59A12.85,12.85,0,0,1,464,194Q457.1,191.17,450.63,179.62Zm5.17-2.9q5.64,10.09,9.88,12.11t7.7.07q3.47-1.93,3.94-6.62t-5.15-14.73q-5.67-10.11-9.89-12.12a8.07,8.07,0,0,0-7.75,0,7.39,7.39,0,0,0-3.88,6Q450.14,166.63,455.8,176.72Z" transform="translate(-110.86 -77.47)"/></svg>