<svg xmlns="http://www.w3.org/2000/svg" viewBox="0 0 491.46 490.46">
  <defs>
    <style>
      .a, .b {
        fill: none;
        stroke: #999;
        stroke-miterlimit: 10;
      }

      .b {
        stroke-width: 0.75px;
      }

      .c {
        fill: #c6c6c6;
      }

      .d {
        opacity: 0.54;
      }

      .e {
        fill: #fff;
      }
    </style>
  </defs>
  <g>
    <g>
      <g>
        <line class="a" x1="245.73" y1="464.29" x2="245.73" y2="439.49"/>
        <line class="a" x1="136.2" y1="434.95" x2="148.6" y2="413.47"/>
        <line class="a" x1="56.02" y1="354.76" x2="77.5" y2="342.36"/>
        <line class="a" x1="26.67" y1="245.23" x2="51.47" y2="245.23"/>
        <line class="a" x1="56.02" y1="135.7" x2="77.5" y2="148.1"/>
        <line class="a" x1="136.2" y1="55.52" x2="148.6" y2="76.99"/>
        <line class="a" x1="245.73" y1="26.17" x2="245.73" y2="50.97"/>
        <line class="a" x1="355.26" y1="55.52" x2="342.86" y2="76.99"/>
        <line class="a" x1="435.45" y1="135.7" x2="413.97" y2="148.1"/>
        <line class="a" x1="464.79" y1="245.23" x2="439.99" y2="245.23"/>
        <line class="a" x1="435.45" y1="354.76" x2="413.97" y2="342.36"/>
        <line class="a" x1="355.26" y1="434.94" x2="342.86" y2="413.47"/>
      </g>
      <g>
        <line class="b" x1="217.12" y1="462.59" x2="218.94" y2="448.74"/>
        <line class="b" x1="188.99" y1="456.99" x2="192.61" y2="443.5"/>
        <line class="b" x1="161.84" y1="447.78" x2="167.18" y2="434.87"/>
        <line class="b" x1="112.27" y1="419.16" x2="120.77" y2="408.08"/>
        <line class="b" x1="90.71" y1="400.25" x2="100.59" y2="390.38"/>
        <line class="b" x1="71.81" y1="378.69" x2="82.88" y2="370.19"/>
        <line class="b" x1="43.19" y1="329.13" x2="56.09" y2="323.78"/>
        <line class="b" x1="33.97" y1="301.97" x2="47.46" y2="298.36"/>
        <line class="b" x1="28.38" y1="273.84" x2="42.22" y2="272.02"/>
        <line class="b" x1="28.38" y1="216.61" x2="42.22" y2="218.44"/>
        <line class="b" x1="33.97" y1="188.49" x2="47.46" y2="192.1"/>
        <line class="b" x1="43.19" y1="161.34" x2="56.09" y2="166.68"/>
        <line class="b" x1="71.8" y1="111.77" x2="82.88" y2="120.27"/>
        <line class="b" x1="90.71" y1="90.21" x2="100.59" y2="100.09"/>
        <line class="b" x1="112.27" y1="71.3" x2="120.77" y2="82.38"/>
        <line class="b" x1="161.84" y1="42.69" x2="167.18" y2="55.59"/>
        <line class="b" x1="188.99" y1="33.47" x2="192.61" y2="46.96"/>
        <line class="b" x1="217.12" y1="27.88" x2="218.94" y2="41.72"/>
        <line class="b" x1="274.35" y1="27.88" x2="272.53" y2="41.72"/>
        <line class="b" x1="302.47" y1="33.47" x2="298.86" y2="46.96"/>
        <line class="b" x1="329.63" y1="42.69" x2="324.28" y2="55.59"/>
        <line class="b" x1="379.19" y1="71.3" x2="370.69" y2="82.38"/>
        <line class="b" x1="400.75" y1="90.21" x2="390.88" y2="100.08"/>
        <line class="b" x1="419.66" y1="111.77" x2="408.58" y2="120.27"/>
        <line class="b" x1="448.27" y1="161.33" x2="435.37" y2="166.68"/>
        <line class="b" x1="457.49" y1="188.49" x2="444.01" y2="192.1"/>
        <line class="b" x1="463.09" y1="216.62" x2="449.24" y2="218.44"/>
        <line class="b" x1="463.09" y1="273.85" x2="449.24" y2="272.02"/>
        <line class="b" x1="457.5" y1="301.97" x2="444.01" y2="298.36"/>
        <line class="b" x1="448.28" y1="329.13" x2="435.37" y2="323.78"/>
        <line class="b" x1="419.66" y1="378.69" x2="408.58" y2="370.19"/>
        <line class="b" x1="400.75" y1="400.25" x2="390.88" y2="390.38"/>
        <line class="b" x1="379.19" y1="419.16" x2="370.69" y2="408.08"/>
        <line class="b" x1="329.63" y1="447.78" x2="324.28" y2="434.87"/>
        <line class="b" x1="302.47" y1="456.99" x2="298.86" y2="443.5"/>
        <line class="b" x1="274.35" y1="462.58" x2="272.52" y2="448.74"/>
      </g>
    </g>
    <g>
      <path class="c" d="M563.88,528.14c0,6-2.26,9.35-6.19,9.34-3.46,0-5.8-3.26-5.84-9.13s2.59-9.21,6.19-9.21S563.9,522.49,563.88,528.14Zm-9.63.24c0,4.61,1.4,7.24,3.58,7.24,2.46,0,3.64-2.85,3.65-7.38,0-4.37-1.1-7.23-3.58-7.24C555.8,521,554.27,523.55,554.25,528.38Z" transform="translate(-311.34 -519.14)"/>
      <path class="c" d="M662.25,559.41a7.9,7.9,0,0,0,2.87,2.89c2.68,1.52,4.47.27,5.17-1,1.2-2.18-.23-4.2-2.25-5.34l-1.16-.65.88-1.57,1.16.65c1.52.86,3.89,1.16,4.92-.67.69-1.24.52-2.76-1.4-3.85a6.47,6.47,0,0,0-3.66-.72l.31-1.83a8.54,8.54,0,0,1,4.7,1.09c3.05,1.71,3.41,4.29,2.35,6.17a4.41,4.41,0,0,1-4.9,2l0,0a4.61,4.61,0,0,1,1.21,5.9c-1.39,2.47-4.53,3.55-8.24,1.46a8.94,8.94,0,0,1-3.42-3.3Z" transform="translate(-311.34 -519.14)"/>
      <path class="c" d="M687.09,567.09c-3.27,5.06-7,6.64-10.25,4.51-2.91-1.88-3.12-5.87,0-10.82s7.15-6.35,10.17-4.4S690.15,562.36,687.09,567.09Zm-8.23-5c-2.5,3.87-2.73,6.84-.9,8,2.06,1.33,4.6-.44,7-4.24s3-6.67.9-8C684.15,556.72,681.47,558.05,678.86,562.1Z" transform="translate(-311.34 -519.14)"/>
      <path class="c" d="M766.94,639.32a8.52,8.52,0,0,0-1.05-1.46,7.19,7.19,0,0,0-8.62-1.84l0,.07a5.28,5.28,0,0,1,4,2.52c1.68,2.65.94,5.73-2,7.58-2.74,1.74-6.46,1.48-8.42-1.64s-.87-6.88,3-9.34a11.15,11.15,0,0,1,8.36-1.74,9.69,9.69,0,0,1,5.25,3.4,11,11,0,0,1,1,1.4Zm-9,4.89c2.15-1.35,2.66-3.39,1.48-5.26a4,4,0,0,0-3.68-1.74,2,2,0,0,0-1,.34c-2.44,1.61-3.55,3.89-2.21,6C753.59,645.31,755.79,645.57,757.93,644.21Z" transform="translate(-311.34 -519.14)"/>
      <path class="c" d="M768.89,656.93c-5.29,2.92-9.28,2.56-11.18-.88-1.67-3,0-6.66,5.15-9.54s9.32-2.2,11.06,1S773.83,654.21,768.89,656.93Zm-4.89-8.3c-4,2.23-5.65,4.73-4.6,6.65,1.19,2.15,4.26,1.79,8.23-.39s5.79-4.47,4.6-6.65C771.21,646.4,768.23,646.3,764,648.63Z" transform="translate(-311.34 -519.14)"/>
      <path class="c" d="M786.26,752.81a10,10,0,0,0,.17,1.93,6.63,6.63,0,0,0,1.89,3.62,7.67,7.67,0,0,0,4.82,2.12v-.07a5.19,5.19,0,0,1-2.1-4.08,5.13,5.13,0,0,1,5.17-5.49,6.09,6.09,0,0,1,6.58,5.76c.17,3.62-2.67,6-7.19,6.2-3.9.18-6.68-1-8.46-2.66a8.85,8.85,0,0,1-2.6-5,11,11,0,0,1-.24-2.2Zm10.23.4c-2.21.1-3.7,1.5-3.61,3.57a4,4,0,0,0,2,3.41,1.54,1.54,0,0,0,.88.17c3-.14,5.29-1.36,5.17-3.87C800.86,754.45,799,753.09,796.49,753.21Z" transform="translate(-311.34 -519.14)"/>
      <path class="c" d="M793.67,777.31c-6-.17-9.28-2.5-9.17-6.42.1-3.46,3.4-5.71,9.27-5.61s9.14,2.83,9,6.43S799.31,777.47,793.67,777.31Zm0-9.63c-4.6-.13-7.26,1.21-7.32,3.4-.07,2.45,2.75,3.7,7.28,3.83,4.36.12,7.25-.91,7.32-3.39C801,769.42,798.49,767.82,793.67,767.68Z" transform="translate(-311.34 -519.14)"/>
      <path class="c" d="M776.2,870.82l0-.05-.19-3.49,1.85.36.22,4.38-.87,1.85-16-7.54,1-2.09Z" transform="translate(-311.34 -519.14)"/>
      <path class="c" d="M758.5,871.92l1.29.71.7,2.52c1.61,6,2.63,8.93,5,10.23a3.16,3.16,0,0,0,4.72-1.42,6.08,6.08,0,0,0,.49-4l1.85.14a7.77,7.77,0,0,1-.83,5.26c-1.83,3.34-4.89,3.5-7.12,2.28-2.86-1.56-4-4.91-5.41-9.91l-.46-1.87-.05,0-3.82,7-1.74-.95Z" transform="translate(-311.34 -519.14)"/>
      <path class="c" d="M753.27,898.69c-5.1-3.2-6.73-6.86-4.64-10.18,1.84-2.94,5.83-3.2,10.83-.13s6.44,7.07,4.53,10.12S758.06,901.69,753.27,898.69Zm4.89-8.29c-3.9-2.45-6.87-2.64-8-.79-1.31,2.07.5,4.59,4.33,7s6.71,2.9,8,.8C763.6,895.62,762.24,893,758.16,890.4Z" transform="translate(-311.34 -519.14)"/>
      <path class="c" d="M693,966.09l0,0,1.57-3.13,1.43,1.23-2,3.92-1.67,1.18L682.2,954.74l1.9-1.33Z" transform="translate(-311.34 -519.14)"/>
      <path class="c" d="M676.33,977.15l5.76-3.54-1.81-4.24a8.28,8.28,0,0,1-1.17.86,7.48,7.48,0,0,1-3.75,1.18,5,5,0,0,1-4.54-2.55c-1.82-2.94-.83-6.59,2.44-8.61a8.76,8.76,0,0,1,4.33-1.39l.45,1.88a7.9,7.9,0,0,0-3.74,1.14,3.92,3.92,0,0,0-1.56,5.48c1.22,1.94,3.38,2.53,6.4.67a19.38,19.38,0,0,0,2-1.45l3.48,7.85-7.22,4.44Z" transform="translate(-311.34 -519.14)"/>
      <path class="c" d="M659.32,978.89c-2.84-5.32-2.44-9.31,1-11.16,3.06-1.64,6.66.12,9.47,5.27s2.09,9.34-1.08,11S662,983.87,659.32,978.89Zm8.37-4.79c-2.18-4.06-4.67-5.7-6.59-4.67-2.16,1.16-1.85,4.24.29,8.23s4.4,5.85,6.58,4.68C669.83,981.35,670,978.36,667.69,974.1Z" transform="translate(-311.34 -519.14)"/>
      <path class="c" d="M574.22,1006.51h.06l3-1.85.58,1.79-3.73,2.32-2.05.13-1.14-17.69,2.31-.15Z" transform="translate(-311.34 -519.14)"/>
      <path class="c" d="M565,996c0,2.24-1.31,3.82-3.48,4.77l0,.08a4.39,4.39,0,0,1,2.84,4c0,2.81-2.34,4.74-5.45,4.76-3.44,0-5.17-2.12-5.19-4.33a4.52,4.52,0,0,1,2.89-4.17V1001c-2.21-.86-3.58-2.4-3.6-4.56,0-3.08,2.61-5.17,6-5.19C562.69,991.26,564.94,993.45,565,996Zm-9.54.17c0,2.15,1.52,3.18,3.92,3.85,2.07-.62,3.18-2,3.17-3.68a3.28,3.28,0,0,0-3.57-3.36C556.78,993,555.4,994.38,555.41,996.21Zm6.65,8.82c0-1.77-1.35-2.72-3.4-3.25A3.5,3.5,0,0,0,556,1005a2.76,2.76,0,0,0,3,2.87A2.82,2.82,0,0,0,562.06,1005Z" transform="translate(-311.34 -519.14)"/>
      <path class="c" d="M538.74,1000c.33-6,2.74-9.22,6.66-9,3.46.19,5.62,3.55,5.36,9.41s-3.06,9.06-6.65,8.87S538.44,1005.59,538.74,1000Zm9.63.25c.24-4.61-1-7.3-3.21-7.42-2.45-.13-3.77,2.67-4,7.19-.23,4.36.73,7.27,3.21,7.41C546.44,1007.5,548.11,1005,548.37,1000.21Z" transform="translate(-311.34 -519.14)"/>
      <path class="c" d="M461.07,970.15l-.66,1.31-2.5.79c-6,1.83-8.82,3-10,5.33a3.16,3.16,0,0,0,1.59,4.67,6,6,0,0,0,4,.35l-.07,1.85a7.73,7.73,0,0,1-5.29-.64c-3.41-1.71-3.68-4.77-2.54-7,1.46-2.93,4.77-4.23,9.72-5.77l1.85-.54,0-.05-7.11-3.56.89-1.78Z" transform="translate(-311.34 -519.14)"/>
      <path class="c" d="M436.57,974.7l.05,0,3.5.1-.52,1.82-4.39-.15-1.76-1,8.89-15.31,2,1.15Z" transform="translate(-311.34 -519.14)"/>
      <path class="c" d="M422.22,958c3.33-5,7-6.55,10.31-4.38,2.88,1.92,3,5.92-.17,10.83s-7.23,6.26-10.23,4.26S419.09,962.73,422.22,958Zm8.16,5.1c2.55-3.84,2.82-6.81,1-8-2-1.36-4.6.38-7.11,4.14s-3.07,6.64-1,8C425,968.44,427.71,967.15,430.38,963.13Z" transform="translate(-311.34 -519.14)"/>
      <path class="c" d="M371,894.19l-1.23.8-2.56-.57c-6.08-1.44-9.12-1.91-11.37-.47a3.15,3.15,0,0,0-1,4.83,6,6,0,0,0,3.31,2.34l-1,1.56a7.84,7.84,0,0,1-4.25-3.22c-2.08-3.2-.77-6,1.36-7.36,2.74-1.79,6.25-1.24,11.31-.08l1.87.48,0,0-4.34-6.68,1.67-1.08Z" transform="translate(-311.34 -519.14)"/>
      <path class="c" d="M360,876.28l-4.19,2.38,4.06,7.16-1.37.78-13.74-1.29-1.27-2.25,9.57-5.43-1.23-2.16,1.64-.93,1.22,2.16,4.19-2.39Zm-5.83,3.31L349,882.51c-.8.46-1.62.89-2.46,1.3l0,.08c1.17,0,2.05,0,3,0l7.37.79.05,0Z" transform="translate(-311.34 -519.14)"/>
      <path class="c" d="M343.55,864.12c5.41-2.65,9.38-2.1,11.1,1.42,1.53,3.11-.35,6.64-5.59,9.27s-9.4,1.75-11-1.48S338.48,866.6,343.55,864.12Zm4.48,8.53c4.13-2,5.86-4.46,4.9-6.42-1.08-2.2-4.17-2-8.23,0s-6,4.18-4.9,6.41C340.72,874.52,343.69,874.76,348,872.65Z" transform="translate(-311.34 -519.14)"/>
      <path class="c" d="M329.61,784.11l-1.47.07-1.91-1.79c-4.52-4.33-6.9-6.26-9.57-6.16a3.16,3.16,0,0,0-3.3,3.67,6.09,6.09,0,0,0,1.67,3.69l-1.65.84a7.83,7.83,0,0,1-2-4.93c-.18-3.81,2.36-5.54,4.9-5.66,3.27-.15,6,2.09,9.79,5.66l1.37,1.35h.06l-.37-8,2-.1Z" transform="translate(-311.34 -519.14)"/>
      <path class="c" d="M311.5,758.65l1.58,0,16,7.93,0,2.48-15.56-7.9h-.05l-.12,8.66-2,0Z" transform="translate(-311.34 -519.14)"/>
      <path class="c" d="M321.11,744.33c6,.44,9.17,2.91,8.88,6.82-.25,3.46-3.65,5.57-9.5,5.2s-9-3.23-8.75-6.82S315.48,743.93,321.11,744.33Zm-.42,9.62c4.59.34,7.31-.89,7.46-3.07.18-2.44-2.59-3.82-7.1-4.15-4.35-.31-7.29.6-7.47,3.07C313.43,751.89,315.88,753.6,320.69,754Z" transform="translate(-311.34 -519.14)"/>
      <path class="c" d="M348.19,666.19a8.17,8.17,0,0,0,2.82-3c1.43-2.73.14-4.49-1.17-5.15-2.21-1.14-4.2.35-5.28,2.4l-.62,1.18-1.59-.84.62-1.18c.82-1.54,1-3.92-.81-4.9-1.26-.66-2.78-.45-3.81,1.51a6.4,6.4,0,0,0-.62,3.68l-1.83-.26a8.35,8.35,0,0,1,1-4.74c1.63-3.09,4.2-3.52,6.11-2.51a4.4,4.4,0,0,1,2.16,4.84l.05,0a4.62,4.62,0,0,1,5.87-1.37c2.51,1.32,3.68,4.43,1.69,8.2a9,9,0,0,1-3.21,3.51Z" transform="translate(-311.34 -519.14)"/>
      <path class="c" d="M355.16,641.11c5.16,3.12,6.84,6.76,4.81,10.12-1.8,3-5.79,3.28-10.83.29s-6.56-7-4.69-10S350.33,638.18,355.16,641.11Zm-4.76,8.38c4,2.38,6.92,2.53,8.05.66,1.27-2.1-.57-4.58-4.44-6.93s-6.76-2.79-8.05-.66C344.88,644.35,346.28,647,350.4,649.49Z" transform="translate(-311.34 -519.14)"/>
      <path class="c" d="M363.24,629.32c5,3.43,6.42,7.16,4.19,10.38-2,2.85-6,2.94-10.82-.35S350.49,632,352.53,629,358.6,626.11,363.24,629.32ZM358,637.38c3.79,2.63,6.75,3,8,1.16,1.4-2-.29-4.61-4-7.19s-6.58-3.18-8-1.14C352.79,631.93,354,634.65,358,637.38Z" transform="translate(-311.34 -519.14)"/>
      <path class="c" d="M426.6,574.69a8,8,0,0,0,3.92-1.13c2.61-1.63,2.38-3.8,1.58-5-1.34-2.09-3.8-1.81-5.76-.58l-1.14.7-.95-1.52,1.13-.71c1.48-.92,2.88-2.86,1.77-4.64-.75-1.2-2.18-1.79-4-.61a6.56,6.56,0,0,0-2.39,2.86l-1.45-1.14a8.37,8.37,0,0,1,3.21-3.61c2.95-1.85,5.39-.93,6.53.9a4.38,4.38,0,0,1-.56,5.26l0,0a4.61,4.61,0,0,1,5.77,1.77c1.5,2.4.94,5.67-2.66,7.92a9,9,0,0,1-4.55,1.43Z" transform="translate(-311.34 -519.14)"/>
      <path class="c" d="M438.45,567.42a8,8,0,0,0,4-.9c2.71-1.47,2.61-3.65,1.88-4.93-1.21-2.17-3.68-2-5.71-.93l-1.18.64-.85-1.58,1.17-.64c1.53-.83,3-2.67,2-4.52-.68-1.24-2.07-1.92-4-.86a6.56,6.56,0,0,0-2.55,2.72l-1.38-1.23a8.42,8.42,0,0,1,3.42-3.42c3.06-1.66,5.44-.59,6.47,1.3a4.4,4.4,0,0,1-.89,5.22l0,.05a4.62,4.62,0,0,1,5.65,2.11c1.35,2.49.6,5.73-3.14,7.76a9,9,0,0,1-4.62,1.15Z" transform="translate(-311.34 -519.14)"/>
      <path class="c" d="M458.18,550.43c2.55,5.46,1.93,9.42-1.62,11.09-3.14,1.46-6.64-.48-9.17-5.77s-1.58-9.43,1.68-11S455.79,545.33,458.18,550.43Zm-8.6,4.33c1.95,4.17,4.34,5.94,6.31,5,2.23-1,2.08-4.13.16-8.23-1.85-3.95-4.07-6.07-6.32-5C447.83,547.42,447.53,550.39,449.58,554.76Z" transform="translate(-311.34 -519.14)"/>
      <g class="d">
        <path class="e" d="M546.89,687.64V658.33H551l9.39,14.83a82.42,82.42,0,0,1,5.27,9.52l.08,0c-.34-3.91-.43-7.48-.43-12V658.33h3.56v29.31h-3.82l-9.31-14.87a93.36,93.36,0,0,1-5.48-9.79l-.13,0c.22,3.69.3,7.22.3,12.09v12.52Z" transform="translate(-311.34 -519.14)"/>
        <path class="e" d="M647,768.3V756.9H636.42v12.71h-3.18V753.12h29.32V769h-3.18V756.9h-9.26v11.4Z" transform="translate(-311.34 -519.14)"/>
        <path class="e" d="M565.5,843a13.38,13.38,0,0,0-6.79-1.92c-3.87,0-6.13,2.05-6.13,5,0,2.74,1.57,4.31,5.52,5.83,4.79,1.7,7.74,4.18,7.74,8.31,0,4.56-3.78,8-9.48,8a13.32,13.32,0,0,1-6.48-1.44l1-3.09a11.52,11.52,0,0,0,5.56,1.4c4,0,5.53-2.4,5.53-4.4,0-2.74-1.79-4.09-5.83-5.65-5-1.91-7.48-4.3-7.48-8.61,0-4.52,3.35-8.44,10.26-8.44a15.16,15.16,0,0,1,7.48,1.87Z" transform="translate(-311.34 -519.14)"/>
        <path class="e" d="M482.44,775.44l-29.32,7.44v-4L468,775.4c3.66-.87,7.31-1.65,10.14-2.18v-.08c-2.92-.48-6.4-1.39-10.18-2.39l-14.79-3.92v-4L468,759.31c3.48-.83,7-1.61,10-2v-.08c-3.22-.61-6.48-1.44-10.13-2.35L453.12,751v-3.87l29.32,8.3v4l-15.27,3.7A88.52,88.52,0,0,1,457.6,765v.09a89.84,89.84,0,0,1,9.57,2.26l15.27,4.17Z" transform="translate(-311.34 -519.14)"/>
      </g>
    </g>
  </g>
</svg>
