<svg id="Слой_1" data-name="Слой 1" xmlns="http://www.w3.org/2000/svg" viewBox="0 0 607.93 907.88"><defs><style>.cls-1,.cls-2{fill:none;stroke:#fff;stroke-miterlimit:10;}.cls-1{stroke-width:4px;}.cls-2{stroke-width:3px;}.cls-3{fill:#fff;}</style></defs><line class="cls-1" x1="575.89" y1="109.47" x2="606.05" y2="28.52"/><line class="cls-1" x1="449.59" y1="87.34" x2="450.05" y2="0.01"/><line class="cls-2" x1="100.2" y1="324.41" x2="48.7" y2="305.27"/><line class="cls-1" x1="132.14" y1="268.16" x2="57.62" y2="224.38"/><line class="cls-2" x1="163.01" y1="212.3" x2="123.37" y2="178.71"/><line class="cls-1" x1="214.7" y1="172.55" x2="158.18" y2="104.38"/><line class="cls-2" x1="263.15" y1="129.27" x2="236" y2="81.57"/><line class="cls-1" x1="324.03" y1="108.18" x2="294.73" y2="25.66"/><line class="cls-2" x1="384.13" y1="82.12" x2="375.13" y2="29.51"/><line class="cls-1" x1="90.92" y1="388.36" x2="0.36" y2="371.81"/><line class="cls-2" x1="514.5" y1="87.78" x2="523.9" y2="36.35"/><line class="cls-1" x1="447.32" y1="821.48" x2="446.91" y2="907.87"/><line class="cls-1" x1="321.35" y1="797.52" x2="290.9" y2="879.37"/><line class="cls-2" x1="78.38" y1="452.21" x2="23.44" y2="451.9"/><line class="cls-1" x1="88.36" y1="516.12" x2="3.18" y2="530.72"/><line class="cls-2" x1="97.48" y1="579.28" x2="48.52" y2="596.69"/><line class="cls-1" x1="131.77" y1="634.75" x2="54.8" y2="678.52"/><line class="cls-2" x1="161.79" y1="692.36" x2="119.53" y2="727.38"/><line class="cls-1" x1="211.27" y1="733.62" x2="154.69" y2="800.45"/><line class="cls-2" x1="258.28" y1="779.25" x2="231.26" y2="825.28"/><line class="cls-2" x1="382.23" y1="820.06" x2="372.83" y2="871.5"/><path class="cls-3" d="M395.85,678.22l6.95-.7c.57,3.38,1.81,5.9,3.71,7.58a9.77,9.77,0,0,0,6.83,2.45,10.61,10.61,0,0,0,8-3.74,13.61,13.61,0,0,0,3.16-9.62q-.09-5.67-3.33-8.9a11.13,11.13,0,0,0-8.39-3.14,11.57,11.57,0,0,0-5.75,1.55,11.24,11.24,0,0,0-4,3.84l-6.23-.71,4.77-27.8,26.83-.43.1,6.33-21.53.35-2.67,14.54a17.56,17.56,0,0,1,10.14-3.55,16.21,16.21,0,0,1,12,4.7,17.07,17.07,0,0,1,5.07,12.51,19.64,19.64,0,0,1-4.07,12.73q-5.07,6.63-14.06,6.78-7.35.12-12.08-3.92A16.11,16.11,0,0,1,395.85,678.22Z" transform="translate(-295.99 -274.67)"/><path class="cls-3" d="M418.67,804.79l-.17-12.92-23.41.33-.09-6.08,24.15-35.3,5.41-.07.48,35,7.28-.1.09,6.07-7.29.1.18,12.92Zm-.26-19-.33-24.33L401.52,786Z" transform="translate(-295.99 -274.67)"/><path class="cls-3" d="M433,893.36l6.65-.67c.64,3.77,1.85,6.52,3.63,8.23a9.61,9.61,0,0,0,6.6,2.69,10.72,10.72,0,0,0,8-3,11,11,0,0,0,3.47-7.93,10.18,10.18,0,0,0-2.75-7.61,10.32,10.32,0,0,0-7.49-3.2,19.06,19.06,0,0,0-4.69.59l.91-5.79a9,9,0,0,0,1.07.11,13.62,13.62,0,0,0,7.68-2,7.56,7.56,0,0,0,3.59-6.7,8.07,8.07,0,0,0-2.27-6.12,8.79,8.79,0,0,0-6.3-2.58,9,9,0,0,0-6.51,2.23c-1.77,1.57-2.94,4-3.53,7.18l-6.59-1.38a17,17,0,0,1,5.84-10.15A16,16,0,0,1,451.11,854a17.52,17.52,0,0,1,8.07,2.15,13.67,13.67,0,0,1,5.52,5.34,13.28,13.28,0,0,1,1.76,7,11.38,11.38,0,0,1-2.08,6.31,12.73,12.73,0,0,1-5.69,4.39A12.55,12.55,0,0,1,466,884a14,14,0,0,1,2.38,8.78,16,16,0,0,1-5.52,11.82,18.14,18.14,0,0,1-13.18,4.51,17,17,0,0,1-11.66-4.6A16.32,16.32,0,0,1,433,893.36Z" transform="translate(-295.99 -274.67)"/><path class="cls-3" d="M544.87,989l.21,6.36-35.65,1.16a11.66,11.66,0,0,1,.63-4.62,24.25,24.25,0,0,1,4.12-7.31,67,67,0,0,1,8.4-8.45q8.55-7.5,11.5-11.82t2.84-8.06a8.87,8.87,0,0,0-3-6.55,10.14,10.14,0,0,0-7.42-2.46,10.31,10.31,0,0,0-7.56,3.12q-2.77,3-2.65,8l-6.83-.48q.45-7.63,4.89-11.78t12.12-4.39q7.76-.25,12.42,3.9a14.15,14.15,0,0,1,4.88,10.52,16.28,16.28,0,0,1-1.12,6.41,24.92,24.92,0,0,1-4.18,6.73,105.85,105.85,0,0,1-9.9,9.82q-5.79,5.21-7.43,7a22.35,22.35,0,0,0-2.68,3.68Z" transform="translate(-295.99 -274.67)"/><path class="cls-3" d="M622.55,1056.24l-6.62.14-.94-42.2a34.71,34.71,0,0,1-6.17,4.7,44.14,44.14,0,0,1-6.9,3.57l-.14-6.4a39.61,39.61,0,0,0,9.57-6.54,24.92,24.92,0,0,0,5.73-7.34l4.27-.1Z" transform="translate(-295.99 -274.67)"/><path class="cls-3" d="M473.29,536.38l-6.59.59a12.36,12.36,0,0,0-2.56-5.64,8.78,8.78,0,0,0-6.66-2.76,9.13,9.13,0,0,0-5.54,1.82,15.14,15.14,0,0,0-4.85,6.72q-1.75,4.39-1.74,12.5a15.25,15.25,0,0,1,5.79-5.47,15.54,15.54,0,0,1,7.23-1.85A15,15,0,0,1,469.71,547q4.71,4.82,4.79,12.55a20.71,20.71,0,0,1-2.08,9.47,15.93,15.93,0,0,1-5.95,6.74,16.4,16.4,0,0,1-8.66,2.42,17,17,0,0,1-13.57-5.94q-5.3-6-5.45-20-.18-15.64,5.53-22.81a16.61,16.61,0,0,1,13.51-6.34,14.47,14.47,0,0,1,15.46,13.27Zm-26.8,23.56a15.44,15.44,0,0,0,1.53,6.53,10.89,10.89,0,0,0,4.12,4.73,10.19,10.19,0,0,0,5.5,1.57,9.34,9.34,0,0,0,7.18-3.46q3-3.42,2.91-9.24c0-3.73-1.06-6.65-3.08-8.78a9.81,9.81,0,0,0-7.54-3.14,10.25,10.25,0,0,0-7.58,3.31A11.66,11.66,0,0,0,446.49,559.94Z" transform="translate(-295.99 -274.67)"/><path class="cls-3" d="M516.48,460.38l-.11-6.37,34.92-.62.1,5.15a73.41,73.41,0,0,0-9.95,14.75A88.72,88.72,0,0,0,534,492.13,69.69,69.69,0,0,0,531.68,507l-6.81.12a66.11,66.11,0,0,1,2.23-15.43,80.35,80.35,0,0,1,6.55-17.51,74.61,74.61,0,0,1,9.26-14.29Z" transform="translate(-295.99 -274.67)"/><path class="cls-3" d="M619.72,417.78a12.49,12.49,0,0,1-6.33-4,11.26,11.26,0,0,1-2.33-6.58,13.12,13.12,0,0,1,3.71-10.11q4-4.23,11-4.59t11.57,3.5a13.29,13.29,0,0,1,4.82,9.76,11,11,0,0,1-1.62,6.63,12.46,12.46,0,0,1-5.75,4.59,14.52,14.52,0,0,1,7.82,4.82,14.32,14.32,0,0,1,3,8.47,15.48,15.48,0,0,1-4.28,11.87q-4.65,5-12.62,5.38t-13.11-4.06a15.67,15.67,0,0,1-5.5-11.52,14.2,14.2,0,0,1,2.2-8.94A13.35,13.35,0,0,1,619.72,417.78Zm-1.91-11.15a8.45,8.45,0,0,0,2.79,6.13,8.73,8.73,0,0,0,6.52,2.09,8.58,8.58,0,0,0,6.15-2.74,8,8,0,0,0,2.13-6,8.25,8.25,0,0,0-2.83-6,9.28,9.28,0,0,0-12.56.6A7.84,7.84,0,0,0,617.81,406.63Zm-.83,25a12,12,0,0,0,1.63,5.41,9.42,9.42,0,0,0,4.2,3.89,11.57,11.57,0,0,0,5.77,1.15,10.64,10.64,0,0,0,7.67-3.46,10.43,10.43,0,0,0,2.68-7.91,10.59,10.59,0,0,0-3.59-7.74,10.94,10.94,0,0,0-8.12-2.71A10.53,10.53,0,0,0,617,431.63Z" transform="translate(-295.99 -274.67)"/><path class="cls-3" d="M728.41,415.33l6.39-.3c.41,3,1.34,5.23,2.8,6.64a8.41,8.41,0,0,0,5.75,2.29,10.19,10.19,0,0,0,5.42-1.15,11.54,11.54,0,0,0,3.93-3.56,22,22,0,0,0,2.75-6.2,33.17,33.17,0,0,0,1.36-8.05c0-.29,0-.73,0-1.32a15.19,15.19,0,0,1-5.65,4.89,14.94,14.94,0,0,1-7.54,1.63,15.11,15.11,0,0,1-11.1-5.37q-4.42-5.07-4.06-13,.38-8.19,5.43-13a16.21,16.21,0,0,1,12.35-4.45,17.22,17.22,0,0,1,9.48,3.27A17.7,17.7,0,0,1,762,386q2,5.34,1.57,15.28-.47,10.32-3,16.35a19.39,19.39,0,0,1-7.1,9A17.28,17.28,0,0,1,743,429.4a14.26,14.26,0,0,1-14.55-14.07Zm28.18-22.57q.25-5.7-2.63-9.18a9.52,9.52,0,0,0-7.14-3.68,10.12,10.12,0,0,0-7.85,3.26,13.4,13.4,0,0,0-3.7,9.19,11.61,11.61,0,0,0,2.73,8.51,10.26,10.26,0,0,0,7.53,3.56,9.82,9.82,0,0,0,7.7-2.88Q756.33,398.47,756.59,392.76Z" transform="translate(-295.99 -274.67)"/><path class="cls-3" d="M849.21,449.15l-6.62-.15,1-42.21a34,34,0,0,1-6.38,4.42,43.63,43.63,0,0,1-7,3.26l.14-6.4a39.67,39.67,0,0,0,9.86-6.11,25,25,0,0,0,6.06-7.07l4.26.1Z" transform="translate(-295.99 -274.67)"/><path class="cls-3" d="M866.79,422.94q.21-9.57,2.32-15.36a19.11,19.11,0,0,1,6.06-8.86,14.94,14.94,0,0,1,9.84-2.94,16.05,16.05,0,0,1,7.58,1.92,14.62,14.62,0,0,1,5.29,5.17,27.23,27.23,0,0,1,3.17,8.1,53.85,53.85,0,0,1,.92,12.78q-.22,9.5-2.31,15.28a19.16,19.16,0,0,1-6,8.88,14.94,14.94,0,0,1-9.88,2.95q-7.8-.17-12.13-5.87Q866.43,438.14,866.79,422.94Zm6.81.16q-.32,13.27,2.7,17.75t7.57,4.57q4.56.1,7.77-4.24t3.52-17.59q.3-13.33-2.7-17.77t-7.65-4.56a8.5,8.5,0,0,0-7.38,3.7Q873.91,409.81,873.6,423.1Z" transform="translate(-295.99 -274.67)"/><path class="cls-3" d="M725.5,1056.8q0-9.57,2-15.41a19.31,19.31,0,0,1,5.86-9,14.93,14.93,0,0,1,9.77-3.16,15.87,15.87,0,0,1,7.62,1.75,14.64,14.64,0,0,1,5.41,5,27.2,27.2,0,0,1,3.35,8,53.43,53.43,0,0,1,1.21,12.76q0,9.5-2,15.33a19.14,19.14,0,0,1-5.83,9,15,15,0,0,1-9.81,3.18q-7.8,0-12.26-5.6Q725.5,1072,725.5,1056.8Zm6.81,0q0,13.29,3.11,17.68t7.68,4.4q4.56,0,7.67-4.41t3.11-17.67q0-13.32-3.11-17.71t-7.74-4.38a8.47,8.47,0,0,0-7.29,3.87Q732.32,1043.51,732.31,1056.8Z" transform="translate(-295.99 -274.67)"/></svg>