<svg xmlns="http://www.w3.org/2000/svg" viewBox="0 0 181.32222 181.32222"><defs><style>.cls-1{fill:#fff;opacity:0.14;}.cls-2,.cls-3,.cls-4,.cls-5{fill:none;stroke-miterlimit:10;}.cls-2,.cls-3{stroke:#999;}.cls-3{stroke-width:0.75px;}.cls-4{stroke:#fff;opacity:0.5;}.cls-5{stroke:#898989;}</style></defs><g id="Слой_2" data-name="Слой 2"><g id="Слой_2-2" data-name="Слой 2"><path class="cls-1" d="M90.66111,166.06415a75.403,75.403,0,1,1,75.403-75.403A75.48853,75.48853,0,0,1,90.66111,166.06415Zm0-142.37A66.96691,66.96691,0,1,0,157.628,90.66111,67.04291,67.04291,0,0,0,90.66111,23.6942Z"/><line class="cls-2" x1="90.67688" y1="166.20897" x2="90.67688" y2="157.65824"/><line class="cls-2" x1="52.91119" y1="156.08985" x2="57.18655" y2="148.6847"/><line class="cls-2" x1="25.26458" y1="128.44378" x2="32.66973" y2="124.16842"/><line class="cls-2" x1="15.14537" y1="90.67689" x2="23.6961" y2="90.67689"/><line class="cls-2" x1="25.26455" y1="52.9112" x2="32.6697" y2="57.18657"/><line class="cls-2" x1="52.91108" y1="25.26483" x2="57.18645" y2="32.66998"/><line class="cls-2" x1="90.67681" y1="15.14567" x2="90.67681" y2="23.6964"/><line class="cls-2" x1="128.4425" y1="25.26479" x2="124.16714" y2="32.66994"/><line class="cls-2" x1="156.08934" y1="52.91133" x2="148.68419" y2="57.18669"/><line class="cls-2" x1="166.20803" y1="90.67711" x2="157.6573" y2="90.67711"/><line class="cls-2" x1="156.08891" y1="128.44251" x2="148.68376" y2="124.16715"/><line class="cls-2" x1="128.44284" y1="156.08935" x2="124.16748" y2="148.6842"/><line class="cls-3" x1="80.77322" y1="165.9016" x2="81.40402" y2="161.11023"/><line class="cls-3" x1="71.03935" y1="163.96511" x2="72.29015" y2="159.29707"/><line class="cls-3" x1="61.64148" y1="160.77592" x2="63.49088" y2="156.31107"/><line class="cls-3" x1="44.48781" y1="150.87193" x2="47.42978" y2="147.03788"/><line class="cls-3" x1="37.02596" y1="144.32854" x2="40.4432" y2="140.9113"/><line class="cls-3" x1="30.48208" y1="136.8667" x2="34.31613" y2="133.92472"/><line class="cls-3" x1="20.57859" y1="119.71328" x2="25.04344" y2="117.86388"/><line class="cls-3" x1="17.38837" y1="110.31564" x2="22.05641" y2="109.06484"/><line class="cls-3" x1="15.45251" y1="100.57999" x2="20.24388" y2="99.9492"/><line class="cls-3" x1="15.45245" y1="80.77323" x2="20.24382" y2="81.40403"/><line class="cls-3" x1="17.38835" y1="71.03936" x2="22.05639" y2="72.29016"/><line class="cls-3" x1="20.57849" y1="61.64149" x2="25.04333" y2="63.49089"/><line class="cls-3" x1="30.482" y1="44.48876" x2="34.31605" y2="47.43073"/><line class="cls-3" x1="37.02586" y1="37.02644" x2="40.44311" y2="40.44369"/><line class="cls-3" x1="44.48771" y1="30.48256" x2="47.42968" y2="34.31661"/><line class="cls-3" x1="61.64089" y1="20.57884" x2="63.49029" y2="25.04369"/><line class="cls-3" x1="71.03911" y1="17.38861" x2="72.28991" y2="22.05666"/><line class="cls-3" x1="80.77347" y1="15.45284" x2="81.40426" y2="20.24421"/><line class="cls-3" x1="100.58059" y1="15.45276" x2="99.94979" y2="20.24413"/><line class="cls-3" x1="110.31434" y1="17.38871" x2="109.06354" y2="22.05676"/><line class="cls-3" x1="119.71221" y1="20.57873" x2="117.86281" y2="25.04358"/><line class="cls-3" x1="136.86541" y1="30.48225" x2="133.92344" y2="34.3163"/><line class="cls-3" x1="144.32773" y1="37.02611" x2="140.91048" y2="40.44336"/><line class="cls-3" x1="150.87208" y1="44.48796" x2="147.03803" y2="47.42993"/><line class="cls-3" x1="160.77486" y1="61.64125" x2="156.31001" y2="63.49065"/><line class="cls-3" x1="163.96556" y1="71.03948" x2="159.29751" y2="72.29028"/><line class="cls-3" x1="165.90133" y1="80.77375" x2="161.10996" y2="81.40454"/><line class="cls-3" x1="165.90065" y1="100.58095" x2="161.10927" y2="99.95015"/><line class="cls-3" x1="163.96605" y1="110.31458" x2="159.298" y2="109.06379"/><line class="cls-3" x1="160.77496" y1="119.71269" x2="156.31012" y2="117.86329"/><line class="cls-3" x1="150.87098" y1="136.86589" x2="147.03693" y2="133.92392"/><line class="cls-3" x1="144.32759" y1="144.32774" x2="140.91034" y2="140.91049"/><line class="cls-3" x1="136.86574" y1="150.87209" x2="133.92377" y2="147.03804"/><line class="cls-3" x1="119.71233" y1="160.77581" x2="117.86293" y2="156.31096"/><line class="cls-3" x1="110.31469" y1="163.96557" x2="109.06389" y2="159.29752"/><line class="cls-3" x1="100.57998" y1="165.90134" x2="99.94919" y2="161.10997"/><path class="cls-4" d="M180.5586,83.72238a90.16518,90.16518,0,0,0-179.795,0Q.50262,87.16277.5,90.66111a90.16111,90.16111,0,0,0,180.32222,0Q180.82222,87.15749,180.5586,83.72238Z"/><circle class="cls-5" cx="90.66111" cy="90.66111" r="75.39789"/></g></g></svg>