<svg xmlns="http://www.w3.org/2000/svg" viewBox="0 0 155.98759 155.98759"><defs><style>.cls-1,.cls-2,.cls-3{fill:none;stroke:#999;stroke-miterlimit:10;}.cls-2{stroke-width:0.75px;}.cls-3{stroke-width:9px;opacity:0.2;}</style></defs><g id="Слой_2" data-name="Слой 2"><g id="Слой_2-2" data-name="Слой 2"><line class="cls-1" x1="77.99398" y1="155.97091" x2="77.99398" y2="147.14334"/><line class="cls-1" x1="39.00556" y1="145.52417" x2="43.41935" y2="137.87926"/><line class="cls-1" x1="10.46384" y1="116.98301" x2="18.10875" y2="112.56922"/><line class="cls-1" x1="0.017" y1="77.99335" x2="8.84458" y2="77.99335"/><line class="cls-1" x1="10.46381" y1="39.00493" x2="18.10871" y2="43.41872"/><line class="cls-1" x1="39.00545" y1="10.46346" x2="43.41924" y2="18.10836"/><line class="cls-1" x1="77.99391" y1="0.01667" x2="77.99391" y2="8.84425"/><line class="cls-1" x1="116.98233" y1="10.46342" x2="112.56854" y2="18.10832"/><line class="cls-1" x1="145.52428" y1="39.00506" x2="137.87938" y2="43.41885"/><line class="cls-1" x1="155.97058" y1="77.99358" x2="147.14301" y2="77.99358"/><line class="cls-1" x1="145.52384" y1="116.9817" x2="137.87893" y2="112.56791"/><line class="cls-1" x1="116.98268" y1="145.52365" x2="112.56889" y2="137.87875"/><line class="cls-2" x1="67.80793" y1="155.36295" x2="68.45672" y2="150.43496"/><line class="cls-2" x1="57.79652" y1="153.37125" x2="59.08298" y2="148.5701"/><line class="cls-2" x1="48.13069" y1="150.09112" x2="50.03282" y2="145.49897"/><line class="cls-2" x1="30.48791" y1="139.90474" x2="33.51377" y2="135.96137"/><line class="cls-2" x1="22.8133" y1="133.17478" x2="26.32798" y2="129.66009"/><line class="cls-2" x1="16.08284" y1="125.50017" x2="20.02621" y2="122.47431"/><line class="cls-2" x1="5.89697" y1="107.85766" x2="10.48913" y2="105.95553"/><line class="cls-2" x1="2.61578" y1="98.19206" x2="7.41693" y2="96.9056"/><line class="cls-2" x1="0.62473" y1="88.17882" x2="5.55272" y2="87.53004"/><line class="cls-2" x1="0.62466" y1="67.8073" x2="5.55265" y2="68.45608"/><line class="cls-2" x1="2.61576" y1="57.79589" x2="7.41691" y2="59.08235"/><line class="cls-2" x1="5.89686" y1="48.13005" x2="10.48901" y2="50.03219"/><line class="cls-2" x1="16.08275" y1="30.48825" x2="20.02613" y2="33.51411"/><line class="cls-2" x1="22.8132" y1="22.81315" x2="26.32789" y2="26.32784"/><line class="cls-2" x1="30.48781" y1="16.08269" x2="33.51367" y2="20.02606"/><line class="cls-2" x1="48.13008" y1="5.89658" x2="50.03221" y2="10.48874"/><line class="cls-2" x1="57.79628" y1="2.61539" x2="59.08274" y2="7.41654"/><line class="cls-2" x1="67.80819" y1="0.62442" x2="68.45697" y2="5.55241"/><line class="cls-2" x1="88.18007" y1="0.62434" x2="87.53129" y2="5.55233"/><line class="cls-2" x1="98.19137" y1="2.61549" x2="96.9049" y2="7.41664"/><line class="cls-2" x1="107.8572" y1="5.89647" x2="105.95507" y2="10.48863"/><line class="cls-2" x1="125.49949" y1="16.08236" x2="122.47363" y2="20.02574"/><line class="cls-2" x1="133.17459" y1="22.81281" x2="129.6599" y2="26.3275"/><line class="cls-2" x1="139.90553" y1="30.48742" x2="135.96216" y2="33.51328"/><line class="cls-2" x1="150.09067" y1="48.12981" x2="145.49852" y2="50.03194"/><line class="cls-2" x1="153.37235" y1="57.79601" x2="148.5712" y2="59.08248"/><line class="cls-2" x1="155.36332" y1="67.80784" x2="150.43533" y2="68.45662"/><line class="cls-2" x1="155.36261" y1="88.1798" x2="150.43462" y2="87.53102"/><line class="cls-2" x1="153.37285" y1="98.19098" x2="148.57171" y2="96.90451"/><line class="cls-2" x1="150.09078" y1="107.85705" x2="145.49863" y2="105.95492"/><line class="cls-2" x1="139.9044" y1="125.49934" x2="135.96103" y2="122.47349"/><line class="cls-2" x1="133.17444" y1="133.17395" x2="129.65976" y2="129.65927"/><line class="cls-2" x1="125.49983" y1="139.9049" x2="122.47398" y2="135.96153"/><line class="cls-2" x1="107.85732" y1="150.09101" x2="105.95519" y2="145.49886"/><line class="cls-2" x1="98.19173" y1="153.37172" x2="96.90526" y2="148.57057"/><line class="cls-2" x1="88.17945" y1="155.36269" x2="87.53067" y2="150.4347"/><circle class="cls-3" cx="77.99379" cy="77.99379" r="73.49379"/></g></g></svg>