<svg xmlns="http://www.w3.org/2000/svg" viewBox="0 0 219.24951 11.64844"><defs><style>.cls-1{opacity:0.43;}.cls-2{fill:#b0b0b0;}</style></defs><g id="Слой_2" data-name="Слой 2"><g id="Слой_2-2" data-name="Слой 2"><g class="cls-1"><path class="cls-2" d="M1.22119,2.76367A14.56264,14.56264,0,0,1,3.9043,2.53809a4.42971,4.42971,0,0,1,3.1333.88379,2.69825,2.69825,0,0,1,.85156,2.05664A2.84317,2.84317,0,0,1,5.84863,8.24219V8.291a2.69811,2.69811,0,0,1,1.59082,2.18457,17.22425,17.22425,0,0,0,.83545,2.97265H6.82861a14.07041,14.07041,0,0,1-.72314-2.58691c-.32129-1.49414-.89942-2.05664-2.169-2.10449H2.61914v4.6914H1.22119ZM2.61914,7.69629H4.04883c1.49463,0,2.44238-.81934,2.44238-2.05664,0-1.39844-1.01221-2.00879-2.49023-2.02442a5.74966,5.74966,0,0,0-1.38184.12793Z" transform="translate(-1.22119 -2.44238)"/><path class="cls-2" d="M19.168,7.9209c0,3.72754-2.26563,5.7041-5.0293,5.7041-2.85986,0-4.86816-2.21777-4.86816-5.49512,0-3.43847,2.13672-5.6875,5.02881-5.6875C17.25586,2.44238,19.168,4.708,19.168,7.9209Zm-8.40332.17676c0,2.31347,1.25342,4.38672,3.45459,4.38672,2.21728,0,3.4707-2.041,3.4707-4.499,0-2.15332-1.125-4.40234-3.45459-4.40234C11.92139,3.583,10.76465,5.71973,10.76465,8.09766Z" transform="translate(-1.22119 -2.44238)"/><path class="cls-2" d="M20.9834,2.61914h1.398v9.65625h4.62744v1.17285H20.9834Z" transform="translate(-1.22119 -2.44238)"/><path class="cls-2" d="M28.56689,2.61914h1.39795v9.65625h4.62745v1.17285h-6.0254Z" transform="translate(-1.22119 -2.44238)"/><path class="cls-2" d="M38.31934,14.09082,42.80225,2.44238H43.895L39.396,14.09082Z" transform="translate(-1.22119 -2.44238)"/><path class="cls-2" d="M48.47363,2.74707a16.21844,16.21844,0,0,1,2.68311-.209,4.447,4.447,0,0,1,3.03711.90039A2.9105,2.9105,0,0,1,55.1416,5.7041a3.18808,3.18808,0,0,1-.83545,2.31348,4.48818,4.48818,0,0,1-3.31006,1.18847,4.82709,4.82709,0,0,1-1.12451-.0957v4.33789h-1.398Zm1.398,5.22168a4.64838,4.64838,0,0,0,1.15674.11328c1.687,0,2.71533-.81933,2.71533-2.31445,0-1.42969-1.0122-2.12012-2.55469-2.12012a5.855,5.855,0,0,0-1.31738.11231Z" transform="translate(-1.22119 -2.44238)"/><path class="cls-2" d="M58.419,2.61914v10.8291H57.021V2.61914Z" transform="translate(-1.22119 -2.44238)"/><path class="cls-2" d="M62.918,3.80762H59.624V2.61914H67.6416V3.80762H64.332v9.64062H62.918Z" transform="translate(-1.22119 -2.44238)"/><path class="cls-2" d="M75.98047,13.09473a6.94207,6.94207,0,0,1-2.86035.51465c-3.05274,0-5.3501-1.92872-5.3501-5.4795a5.38851,5.38851,0,0,1,5.65576-5.6875,5.81435,5.81435,0,0,1,2.5708.48145l-.3374,1.14062a5.0976,5.0976,0,0,0-2.18555-.44922c-2.53857,0-4.22558,1.62207-4.22558,4.4668,0,2.65039,1.52636,4.35352,4.16162,4.35352a5.6044,5.6044,0,0,0,2.28125-.44922Z" transform="translate(-1.22119 -2.44238)"/><path class="cls-2" d="M79.12939,2.61914V7.14941h5.2378V2.61914h1.41406v10.8291H84.36719V8.37109h-5.2378v5.07715H77.73145V2.61914Z" transform="translate(-1.22119 -2.44238)"/></g><g class="cls-1"><path class="cls-2" d="M180.15137,2.67383a18.67262,18.67262,0,0,1,2.7749-.21A5.78949,5.78949,0,0,1,187.021,3.72363a4.65722,4.65722,0,0,1,1.4248,3.62989,5.34384,5.34384,0,0,1-1.45508,3.92968,6.22583,6.22583,0,0,1-4.46972,1.45508,21.00588,21.00588,0,0,1-2.36963-.12012Zm1.30468,8.93945a8.174,8.174,0,0,0,1.31983.0752c2.79,0,4.30517-1.55957,4.30517-4.29.01465-2.38477-1.335-3.89942-4.09521-3.89942a7.40476,7.40476,0,0,0-1.52979.13477Z" transform="translate(-1.22119 -2.44238)"/><path class="cls-2" d="M195.37549,7.9082H191.4458v3.64551h4.37988v1.09473h-5.68457V2.53906h5.45948V3.63379H191.4458V6.8291h3.92969Z" transform="translate(-1.22119 -2.44238)"/><path class="cls-2" d="M197.521,2.65918a15.06327,15.06327,0,0,1,2.50488-.19531,4.15167,4.15167,0,0,1,2.83447.83984,2.71823,2.71823,0,0,1,.88526,2.11524,2.97787,2.97787,0,0,1-.77979,2.16015,4.192,4.192,0,0,1-3.09033,1.10938,4.48317,4.48317,0,0,1-1.04981-.08985v4.04981H197.521Zm1.30468,4.874a4.36538,4.36538,0,0,0,1.08008.10547c1.57471,0,2.53467-.76465,2.53467-2.16015,0-1.335-.94482-1.9795-2.38477-1.9795a5.51224,5.51224,0,0,0-1.23.1045Z" transform="translate(-1.22119 -2.44238)"/><path class="cls-2" d="M207.4209,3.64844h-3.0752V2.53906h7.48487V3.64844h-3.08985v9H207.4209Z" transform="translate(-1.22119 -2.44238)"/><path class="cls-2" d="M214.26074,2.53906V6.76855h4.88965V2.53906h1.32031V12.64844h-1.32031V7.9082h-4.88965v4.74024h-1.30469V2.53906Z" transform="translate(-1.22119 -2.44238)"/></g></g></g></svg>